<?xml version="1.0" encoding="UTF-8" standalone="no"?>
<!DOCTYPE svg PUBLIC "-//W3C//DTD SVG 1.1//EN"
 "http://www.w3.org/Graphics/SVG/1.1/DTD/svg11.dtd">
<!-- Generated by graphviz version 2.40.1 (20161225.0304)
 -->
<!-- Title: Release Infrastructure Pages: 1 -->
<svg width="544pt" height="1098pt"
 viewBox="0.00 0.00 543.81 1098.00" xmlns="http://www.w3.org/2000/svg" xmlns:xlink="http://www.w3.org/1999/xlink">
<g id="graph0" class="graph" transform="scale(1 1) rotate(0) translate(4 1094)">
<title>Release Infrastructure</title>
<polygon fill="#ffffff" stroke="transparent" points="-4,4 -4,-1094 539.8103,-1094 539.8103,4 -4,4"/>
<g id="clust1" class="cluster">
<title>cluster_puppet</title>
<polygon fill="none" stroke="#000000" points="130.6909,-368 130.6909,-1037 527.8103,-1037 527.8103,-368 130.6909,-368"/>
<text text-anchor="middle" x="329.2506" y="-1021.8" font-family="Times,serif" font-size="14.00" fill="#000000">RelEng Puppet Managed</text>
</g>
<!-- tc -->
<g id="node1" class="node">
<title>tc</title>
<ellipse fill="none" stroke="#000000" cx="51.3454" cy="-718" rx="51.1914" ry="18"/>
<text text-anchor="middle" x="51.3454" y="-714.3" font-family="Times,serif" font-size="14.00" fill="#000000">Taskcluster</text>
</g>
<!-- bw -->
<g id="node5" class="node">
<title>bw</title>
<ellipse fill="none" stroke="#000000" cx="240.0819" cy="-1063" rx="71.4873" ry="18"/>
<text text-anchor="middle" x="240.0819" y="-1059.3" font-family="Times,serif" font-size="14.00" fill="#000000">Release Workers</text>
</g>
<!-- tc&#45;&gt;bw -->
<g id="edge3" class="edge">
<title>tc&#45;&gt;bw</title>
<path fill="none" stroke="#000000" d="M55.8387,-736.2913C72.6238,-804.6199 130.6909,-1041 130.6909,-1041 130.6909,-1041 150.9798,-1045.0804 174.0822,-1049.7266"/>
<polygon fill="#000000" stroke="#000000" points="173.6108,-1053.2018 184.1046,-1051.7422 174.991,-1046.3392 173.6108,-1053.2018"/>
</g>
<!-- bms -->
<g id="node6" class="node">
<title>bms</title>
<ellipse fill="none" stroke="#000000" cx="240.0819" cy="-772" rx="101.2821" ry="18"/>
<text text-anchor="middle" x="240.0819" y="-768.3" font-family="Times,serif" font-size="14.00" fill="#000000">Beetmover Scriptworkers</text>
</g>
<!-- tc&#45;&gt;bms -->
<g id="edge7" class="edge">
<title>tc&#45;&gt;bms</title>
<path fill="none" stroke="#000000" d="M88.2307,-730.5515C108.9513,-737.6024 130.6909,-745 130.6909,-745 130.6909,-745 149.0819,-749.5393 170.7823,-754.8954"/>
<polygon fill="#000000" stroke="#000000" points="170.0373,-758.3165 180.5847,-757.3148 171.7148,-751.5204 170.0373,-758.3165"/>
</g>
<!-- bouncesw -->
<g id="node7" class="node">
<title>bouncesw</title>
<ellipse fill="none" stroke="#000000" cx="240.0819" cy="-718" rx="92.0841" ry="18"/>
<text text-anchor="middle" x="240.0819" y="-714.3" font-family="Times,serif" font-size="14.00" fill="#000000">Bouncer Scriptworkers</text>
</g>
<!-- tc&#45;&gt;bouncesw -->
<g id="edge8" class="edge">
<title>tc&#45;&gt;bouncesw</title>
<path fill="none" stroke="#000000" d="M102.9185,-718C113.7476,-718 125.5305,-718 137.491,-718"/>
<polygon fill="#000000" stroke="#000000" points="137.5625,-721.5001 147.5625,-718 137.5624,-714.5001 137.5625,-721.5001"/>
</g>
<!-- bs -->
<g id="node8" class="node">
<title>bs</title>
<ellipse fill="none" stroke="#000000" cx="240.0819" cy="-664" rx="86.3847" ry="18"/>
<text text-anchor="middle" x="240.0819" y="-660.3" font-family="Times,serif" font-size="14.00" fill="#000000">Balrog Scriptworkers</text>
</g>
<!-- tc&#45;&gt;bs -->
<g id="edge6" class="edge">
<title>tc&#45;&gt;bs</title>
<path fill="none" stroke="#000000" d="M88.2307,-705.4485C108.9513,-698.3976 130.6909,-691 130.6909,-691 130.6909,-691 151.1614,-685.9475 174.3918,-680.2137"/>
<polygon fill="#000000" stroke="#000000" points="175.2347,-683.6108 184.1046,-677.8164 173.5572,-676.8147 175.2347,-683.6108"/>
</g>
<!-- sw -->
<g id="node9" class="node">
<title>sw</title>
<ellipse fill="none" stroke="#000000" cx="240.0819" cy="-826" rx="89.8845" ry="18"/>
<text text-anchor="middle" x="240.0819" y="-822.3" font-family="Times,serif" font-size="14.00" fill="#000000">Signing Scriptworkers</text>
</g>
<!-- tc&#45;&gt;sw -->
<g id="edge4" class="edge">
<title>tc&#45;&gt;sw</title>
<path fill="none" stroke="#000000" d="M68.1726,-735.178C91.4637,-758.9548 130.6909,-799 130.6909,-799 130.6909,-799 150.659,-803.9286 173.5327,-809.5743"/>
<polygon fill="#000000" stroke="#000000" points="172.9165,-813.0271 183.4639,-812.0255 174.5939,-806.2311 172.9165,-813.0271"/>
</g>
<!-- as -->
<g id="node11" class="node">
<title>as</title>
<ellipse fill="none" stroke="#000000" cx="240.0819" cy="-610" rx="86.3847" ry="18"/>
<text text-anchor="middle" x="240.0819" y="-606.3" font-family="Times,serif" font-size="14.00" fill="#000000">Addon Scriptworkers</text>
</g>
<!-- tc&#45;&gt;as -->
<g id="edge5" class="edge">
<title>tc&#45;&gt;as</title>
<path fill="none" stroke="#000000" d="M68.1726,-700.822C91.4637,-677.0452 130.6909,-637 130.6909,-637 130.6909,-637 151.1614,-631.9475 174.3918,-626.2137"/>
<polygon fill="#000000" stroke="#000000" points="175.2347,-629.6108 184.1046,-623.8164 173.5572,-622.8147 175.2347,-629.6108"/>
</g>
<!-- pas -->
<g id="node13" class="node">
<title>pas</title>
<ellipse fill="none" stroke="#000000" cx="240.0819" cy="-556" rx="92.0841" ry="18"/>
<text text-anchor="middle" x="240.0819" y="-552.3" font-family="Times,serif" font-size="14.00" fill="#000000">Pushapk Scriptworkers</text>
</g>
<!-- tc&#45;&gt;pas -->
<g id="edge9" class="edge">
<title>tc&#45;&gt;pas</title>
<path fill="none" stroke="#000000" d="M61.7185,-700.3511C83.226,-663.7578 130.6909,-583 130.6909,-583 130.6909,-583 150.3408,-578.15 172.9843,-572.5611"/>
<polygon fill="#000000" stroke="#000000" points="173.9535,-575.927 182.8234,-570.1326 172.276,-569.131 173.9535,-575.927"/>
</g>
<!-- pss -->
<g id="node14" class="node">
<title>pss</title>
<ellipse fill="none" stroke="#000000" cx="240.0819" cy="-502" rx="95.5831" ry="18"/>
<text text-anchor="middle" x="240.0819" y="-498.3" font-family="Times,serif" font-size="14.00" fill="#000000">Pushsnap Scriptworkers</text>
</g>
<!-- tc&#45;&gt;pss -->
<g id="edge10" class="edge">
<title>tc&#45;&gt;pss</title>
<path fill="none" stroke="#000000" d="M58.9534,-699.8779C78.8129,-652.5727 130.6909,-529 130.6909,-529 130.6909,-529 149.6975,-524.3088 171.8655,-518.8372"/>
<polygon fill="#000000" stroke="#000000" points="172.9933,-522.164 181.8633,-516.3696 171.3159,-515.3679 172.9933,-522.164"/>
</g>
<!-- sis -->
<g id="node15" class="node">
<title>sis</title>
<ellipse fill="none" stroke="#000000" cx="240.0819" cy="-448" rx="86.3847" ry="18"/>
<text text-anchor="middle" x="240.0819" y="-444.3" font-family="Times,serif" font-size="14.00" fill="#000000">Ship It Scriptworkers</text>
</g>
<!-- tc&#45;&gt;sis -->
<g id="edge11" class="edge">
<title>tc&#45;&gt;sis</title>
<path fill="none" stroke="#000000" d="M57.3092,-699.7355C75.7619,-643.2231 130.6909,-475 130.6909,-475 130.6909,-475 151.1614,-469.9475 174.3918,-464.2137"/>
<polygon fill="#000000" stroke="#000000" points="175.2347,-467.6108 184.1046,-461.8164 173.5572,-460.8147 175.2347,-467.6108"/>
</g>
<!-- ts -->
<g id="node16" class="node">
<title>ts</title>
<ellipse fill="none" stroke="#000000" cx="240.0819" cy="-988" rx="78.7863" ry="18"/>
<text text-anchor="middle" x="240.0819" y="-984.3" font-family="Times,serif" font-size="14.00" fill="#000000">Tree Scriptworkers</text>
</g>
<!-- tc&#45;&gt;ts -->
<g id="edge12" class="edge">
<title>tc&#45;&gt;ts</title>
<path fill="none" stroke="#000000" d="M57.3092,-736.2645C75.7619,-792.7769 130.6909,-961 130.6909,-961 130.6909,-961 152.3144,-966.3371 176.3337,-972.2656"/>
<polygon fill="#000000" stroke="#000000" points="175.8004,-975.7389 186.3478,-974.7373 177.4779,-968.9429 175.8004,-975.7389"/>
</g>
<!-- hg -->
<g id="node2" class="node">
<title>hg</title>
<ellipse fill="none" stroke="#000000" cx="452.8662" cy="-1063" rx="63.0888" ry="18"/>
<text text-anchor="middle" x="452.8662" y="-1059.3" font-family="Times,serif" font-size="14.00" fill="#000000">hg.mozilla.org</text>
</g>
<!-- hg&#45;&gt;tc -->
<g id="edge2" class="edge">
<title>hg&#45;&gt;tc</title>
<path fill="none" stroke="#000000" d="M404.6553,-1074.6856C374.55,-1081.9826 341.4729,-1090 341.4729,-1090 341.4729,-1090 130.6909,-1090 130.6909,-1090 130.6909,-1090 75.8283,-832.7844 57.3427,-746.1174"/>
<polygon fill="#000000" stroke="#000000" points="60.7353,-745.244 55.2262,-736.1942 53.8892,-746.7043 60.7353,-745.244"/>
</g>
<!-- shipit -->
<g id="node3" class="node">
<title>shipit</title>
<ellipse fill="none" stroke="#000000" cx="452.8662" cy="-18" rx="34.394" ry="18"/>
<text text-anchor="middle" x="452.8662" y="-14.3" font-family="Times,serif" font-size="14.00" fill="#000000">Ship It</text>
</g>
<!-- gh -->
<g id="node4" class="node">
<title>gh</title>
<ellipse fill="none" stroke="#000000" cx="51.3454" cy="-394" rx="35.194" ry="18"/>
<text text-anchor="middle" x="51.3454" y="-390.3" font-family="Times,serif" font-size="14.00" fill="#000000">Github</text>
</g>
<!-- pm -->
<g id="node18" class="node">
<title>pm</title>
<ellipse fill="none" stroke="#000000" cx="240.0819" cy="-394" rx="65.7887" ry="18"/>
<text text-anchor="middle" x="240.0819" y="-390.3" font-family="Times,serif" font-size="14.00" fill="#000000">Puppet Masters</text>
</g>
<!-- gh&#45;&gt;pm -->
<g id="edge1" class="edge">
<title>gh&#45;&gt;pm</title>
<path fill="none" stroke="#000000" d="M86.8453,-394C108.623,-394 137.3649,-394 164.0674,-394"/>
<polygon fill="#000000" stroke="#000000" points="164.1829,-397.5001 174.1828,-394 164.1828,-390.5001 164.1829,-397.5001"/>
</g>
<!-- S3 -->
<g id="node22" class="node">
<title>S3</title>
<ellipse fill="none" stroke="#000000" cx="452.8662" cy="-342" rx="27" ry="18"/>
<text text-anchor="middle" x="452.8662" y="-338.3" font-family="Times,serif" font-size="14.00" fill="#000000">S3</text>
</g>
<!-- bms&#45;&gt;S3 -->
<g id="edge20" class="edge">
<title>bms&#45;&gt;S3</title>
<path fill="none" stroke="#000000" d="M296.4109,-756.9998C319.7481,-750.7852 341.4729,-745 341.4729,-745 341.4729,-745 377.4729,-364 377.4729,-364 377.4729,-364 398.2249,-357.9445 417.9542,-352.1874"/>
<polygon fill="#000000" stroke="#000000" points="419.1421,-355.4868 427.7613,-349.3257 417.1812,-348.7671 419.1421,-355.4868"/>
</g>
<!-- Bouncer -->
<g id="node21" class="node">
<title>Bouncer</title>
<ellipse fill="none" stroke="#000000" cx="452.8662" cy="-288" rx="40.0939" ry="18"/>
<text text-anchor="middle" x="452.8662" y="-284.3" font-family="Times,serif" font-size="14.00" fill="#000000">Bouncer</text>
</g>
<!-- bouncesw&#45;&gt;Bouncer -->
<g id="edge13" class="edge">
<title>bouncesw&#45;&gt;Bouncer</title>
<path fill="none" stroke="#000000" d="M294.6356,-703.4726C318.6342,-697.0819 341.4729,-691 341.4729,-691 341.4729,-691 377.4729,-315 377.4729,-315 377.4729,-315 393.9871,-309.0859 411.5576,-302.7935"/>
<polygon fill="#000000" stroke="#000000" points="413.0951,-305.9607 421.3295,-299.294 410.7349,-299.3705 413.0951,-305.9607"/>
</g>
<!-- Balrog -->
<g id="node20" class="node">
<title>Balrog</title>
<ellipse fill="none" stroke="#000000" cx="452.8662" cy="-234" rx="34.394" ry="18"/>
<text text-anchor="middle" x="452.8662" y="-230.3" font-family="Times,serif" font-size="14.00" fill="#000000">Balrog</text>
</g>
<!-- bs&#45;&gt;Balrog -->
<g id="edge14" class="edge">
<title>bs&#45;&gt;Balrog</title>
<path fill="none" stroke="#000000" d="M293.4497,-649.7884C317.8761,-643.2837 341.4729,-637 341.4729,-637 341.4729,-637 377.4729,-261 377.4729,-261 377.4729,-261 396.1639,-254.3063 414.9331,-247.5847"/>
<polygon fill="#000000" stroke="#000000" points="416.1288,-250.8742 424.3632,-244.2075 413.7687,-244.2841 416.1288,-250.8742"/>
</g>
<!-- ss -->
<g id="node10" class="node">
<title>ss</title>
<ellipse fill="none" stroke="#000000" cx="452.8662" cy="-826" rx="66.8882" ry="18"/>
<text text-anchor="middle" x="452.8662" y="-822.3" font-family="Times,serif" font-size="14.00" fill="#000000">Signing Servers</text>
</g>
<!-- sw&#45;&gt;ss -->
<g id="edge19" class="edge">
<title>sw&#45;&gt;ss</title>
<path fill="none" stroke="#000000" d="M330.0132,-826C345.2192,-826 360.885,-826 375.7273,-826"/>
<polygon fill="#000000" stroke="#000000" points="375.8554,-829.5001 385.8554,-826 375.8553,-822.5001 375.8554,-829.5001"/>
</g>
<!-- AMO -->
<g id="node19" class="node">
<title>AMO</title>
<ellipse fill="none" stroke="#000000" cx="452.8662" cy="-180" rx="31.6951" ry="18"/>
<text text-anchor="middle" x="452.8662" y="-176.3" font-family="Times,serif" font-size="14.00" fill="#000000">AMO</text>
</g>
<!-- as&#45;&gt;AMO -->
<g id="edge15" class="edge">
<title>as&#45;&gt;AMO</title>
<path fill="none" stroke="#000000" d="M293.4497,-595.7884C317.8761,-589.2837 341.4729,-583 341.4729,-583 341.4729,-583 377.4729,-207 377.4729,-207 377.4729,-207 396.9242,-200.0341 416.0668,-193.1787"/>
<polygon fill="#000000" stroke="#000000" points="417.413,-196.4143 425.6475,-189.7476 415.0529,-189.8241 417.413,-196.4143"/>
</g>
<!-- l10n -->
<g id="node12" class="node">
<title>l10n</title>
<ellipse fill="none" stroke="#000000" cx="240.0819" cy="-934" rx="60.3893" ry="18"/>
<text text-anchor="middle" x="240.0819" y="-930.3" font-family="Times,serif" font-size="14.00" fill="#000000">L10n Bumper</text>
</g>
<!-- l10n&#45;&gt;hg -->
<g id="edge18" class="edge">
<title>l10n&#45;&gt;hg</title>
<path fill="none" stroke="#000000" d="M285.1439,-945.9998C312.223,-953.2109 341.4729,-961 341.4729,-961 341.4729,-961 377.4729,-1041 377.4729,-1041 377.4729,-1041 386.8009,-1043.7219 398.8948,-1047.251"/>
<polygon fill="#000000" stroke="#000000" points="397.9934,-1050.6339 408.5735,-1050.0753 399.9543,-1043.9141 397.9934,-1050.6339"/>
</g>
<!-- gp -->
<g id="node23" class="node">
<title>gp</title>
<ellipse fill="none" stroke="#000000" cx="452.8662" cy="-126" rx="75.2868" ry="18"/>
<text text-anchor="middle" x="452.8662" y="-122.3" font-family="Times,serif" font-size="14.00" fill="#000000">Google Play Store</text>
</g>
<!-- pas&#45;&gt;gp -->
<g id="edge22" class="edge">
<title>pas&#45;&gt;gp</title>
<path fill="none" stroke="#000000" d="M294.6356,-541.4726C318.6342,-535.0819 341.4729,-529 341.4729,-529 341.4729,-529 377.4729,-153 377.4729,-153 377.4729,-153 388.0475,-149.213 401.2761,-144.4756"/>
<polygon fill="#000000" stroke="#000000" points="402.5265,-147.7455 410.761,-141.0788 400.1664,-141.1553 402.5265,-147.7455"/>
</g>
<!-- snap -->
<g id="node24" class="node">
<title>snap</title>
<ellipse fill="none" stroke="#000000" cx="452.8662" cy="-72" rx="49.2915" ry="18"/>
<text text-anchor="middle" x="452.8662" y="-68.3" font-family="Times,serif" font-size="14.00" fill="#000000">Snap Store</text>
</g>
<!-- pss&#45;&gt;snap -->
<g id="edge23" class="edge">
<title>pss&#45;&gt;snap</title>
<path fill="none" stroke="#000000" d="M295.5239,-487.236C319.1946,-480.9326 341.4729,-475 341.4729,-475 341.4729,-475 377.4729,-99 377.4729,-99 377.4729,-99 391.693,-93.9075 407.7818,-88.1457"/>
<polygon fill="#000000" stroke="#000000" points="409.1428,-91.3761 417.3772,-84.7094 406.7827,-84.7859 409.1428,-91.3761"/>
</g>
<!-- sis&#45;&gt;shipit -->
<g id="edge16" class="edge">
<title>sis&#45;&gt;shipit</title>
<path fill="none" stroke="#000000" d="M293.4497,-433.7884C317.8761,-427.2837 341.4729,-421 341.4729,-421 341.4729,-421 377.4729,-45 377.4729,-45 377.4729,-45 396.1639,-38.3063 414.9331,-31.5847"/>
<polygon fill="#000000" stroke="#000000" points="416.1288,-34.8742 424.3632,-28.2075 413.7687,-28.2841 416.1288,-34.8742"/>
</g>
<!-- ts&#45;&gt;hg -->
<g id="edge21" class="edge">
<title>ts&#45;&gt;hg</title>
<path fill="none" stroke="#000000" d="M280.5606,-1003.6151C321.0876,-1019.2488 377.4729,-1041 377.4729,-1041 377.4729,-1041 386.8009,-1043.7219 398.8948,-1047.251"/>
<polygon fill="#000000" stroke="#000000" points="397.9934,-1050.6339 408.5735,-1050.0753 399.9543,-1043.9141 397.9934,-1050.6339"/>
</g>
<!-- md -->
<g id="node17" class="node">
<title>md</title>
<ellipse fill="none" stroke="#000000" cx="240.0819" cy="-880" rx="83.3857" ry="18"/>
<text text-anchor="middle" x="240.0819" y="-876.3" font-family="Times,serif" font-size="14.00" fill="#000000">Merge Day Instance</text>
</g>
<!-- md&#45;&gt;hg -->
<g id="edge17" class="edge">
<title>md&#45;&gt;hg</title>
<path fill="none" stroke="#000000" d="M292.5593,-893.9745C317.2994,-900.5627 341.4729,-907 341.4729,-907 341.4729,-907 377.4729,-1041 377.4729,-1041 377.4729,-1041 386.8009,-1043.7219 398.8948,-1047.251"/>
<polygon fill="#000000" stroke="#000000" points="397.9934,-1050.6339 408.5735,-1050.0753 399.9543,-1043.9141 397.9934,-1050.6339"/>
</g>
</g>
</svg>
