<?xml version="1.0" encoding="UTF-8" standalone="no"?>
<!DOCTYPE svg PUBLIC "-//W3C//DTD SVG 1.1//EN"
 "http://www.w3.org/Graphics/SVG/1.1/DTD/svg11.dtd">
<!-- Generated by graphviz version 2.40.1 (20161225.0304)
 -->
<!-- Title: Release Infrastructure Pages: 1 -->
<svg width="1090pt" height="882pt"
 viewBox="0.00 0.00 1089.62 882.00" xmlns="http://www.w3.org/2000/svg" xmlns:xlink="http://www.w3.org/1999/xlink">
<g id="graph0" class="graph" transform="scale(1 1) rotate(0) translate(4 878)">
<title>Release Infrastructure</title>
<polygon fill="#ffffff" stroke="transparent" points="-4,4 -4,-878 1085.6228,-878 1085.6228,4 -4,4"/>
<g id="clust1" class="cluster">
<title>cluster_puppet</title>
<polygon fill="none" stroke="#000000" points="8,-269 8,-830 1073.6228,-830 1073.6228,-269 8,-269"/>
<text text-anchor="middle" x="540.8114" y="-814.8" font-family="Times,serif" font-size="14.00" fill="#000000">Puppet Managed</text>
</g>
<!-- tc -->
<g id="node1" class="node">
<title>tc</title>
<ellipse fill="none" stroke="#000000" cx="437.019" cy="-243" rx="51.1914" ry="18"/>
<text text-anchor="middle" x="437.019" y="-239.3" font-family="Times,serif" font-size="14.00" fill="#000000">Taskcluster</text>
</g>
<!-- fs -->
<g id="node4" class="node">
<title>fs</title>
<ellipse fill="none" stroke="#000000" cx="625.7555" cy="-241" rx="38.1938" ry="18"/>
<text text-anchor="middle" x="625.7555" y="-237.3" font-family="Times,serif" font-size="14.00" fill="#000000">Funsize</text>
</g>
<!-- tc&#45;&gt;fs -->
<g id="edge5" class="edge">
<title>tc&#45;&gt;fs</title>
<path fill="none" stroke="#000000" d="M488.5921,-242.4535C516.1742,-242.1612 549.9446,-241.8034 577.0747,-241.5159"/>
<polygon fill="#000000" stroke="#000000" points="577.1583,-245.0153 587.1207,-241.4094 577.0841,-238.0157 577.1583,-245.0153"/>
</g>
<!-- bw -->
<g id="node6" class="node">
<title>bw</title>
<ellipse fill="none" stroke="#000000" cx="625.7555" cy="-781" rx="63.8893" ry="18"/>
<text text-anchor="middle" x="625.7555" y="-777.3" font-family="Times,serif" font-size="14.00" fill="#000000">Build Workers</text>
</g>
<!-- tc&#45;&gt;bw -->
<g id="edge4" class="edge">
<title>tc&#45;&gt;bw</title>
<path fill="none" stroke="#000000" d="M440.1277,-261.1868C455.6874,-352.216 524.3645,-754 524.3645,-754 524.3645,-754 546.1452,-759.8001 569.5165,-766.0238"/>
<polygon fill="#000000" stroke="#000000" points="568.6505,-769.4151 579.2144,-768.6063 570.4519,-762.6508 568.6505,-769.4151"/>
</g>
<!-- bms -->
<g id="node7" class="node">
<title>bms</title>
<ellipse fill="none" stroke="#000000" cx="625.7555" cy="-673" rx="101.2821" ry="18"/>
<text text-anchor="middle" x="625.7555" y="-669.3" font-family="Times,serif" font-size="14.00" fill="#000000">Beetmover Scriptworkers</text>
</g>
<!-- tc&#45;&gt;bms -->
<g id="edge9" class="edge">
<title>tc&#45;&gt;bms</title>
<path fill="none" stroke="#000000" d="M440.9418,-261.099C457.9377,-339.5158 524.3645,-646 524.3645,-646 524.3645,-646 540.4088,-650.2725 559.7327,-655.4184"/>
<polygon fill="#000000" stroke="#000000" points="558.8626,-658.8086 569.4265,-657.9998 560.6639,-652.0443 558.8626,-658.8086"/>
</g>
<!-- bouncesw -->
<g id="node8" class="node">
<title>bouncesw</title>
<ellipse fill="none" stroke="#000000" cx="625.7555" cy="-619" rx="92.0841" ry="18"/>
<text text-anchor="middle" x="625.7555" y="-615.3" font-family="Times,serif" font-size="14.00" fill="#000000">Bouncer Scriptworkers</text>
</g>
<!-- tc&#45;&gt;bouncesw -->
<g id="edge10" class="edge">
<title>tc&#45;&gt;bouncesw</title>
<path fill="none" stroke="#000000" d="M441.5921,-261.2724C459.5641,-333.0817 524.3645,-592 524.3645,-592 524.3645,-592 541.3851,-596.5325 561.479,-601.8834"/>
<polygon fill="#000000" stroke="#000000" points="560.6378,-605.2813 571.2017,-604.4726 562.4392,-598.5171 560.6378,-605.2813"/>
</g>
<!-- bs -->
<g id="node9" class="node">
<title>bs</title>
<ellipse fill="none" stroke="#000000" cx="625.7555" cy="-565" rx="86.3847" ry="18"/>
<text text-anchor="middle" x="625.7555" y="-561.3" font-family="Times,serif" font-size="14.00" fill="#000000">Balrog Scriptworkers</text>
</g>
<!-- tc&#45;&gt;bs -->
<g id="edge8" class="edge">
<title>tc&#45;&gt;bs</title>
<path fill="none" stroke="#000000" d="M442.3514,-261.0095C461.3154,-325.0584 524.3645,-538 524.3645,-538 524.3645,-538 541.9501,-542.683 562.4737,-548.1483"/>
<polygon fill="#000000" stroke="#000000" points="561.8238,-551.5972 572.3877,-550.7884 563.6251,-544.8329 561.8238,-551.5972"/>
</g>
<!-- sw -->
<g id="node10" class="node">
<title>sw</title>
<ellipse fill="none" stroke="#000000" cx="625.7555" cy="-727" rx="89.8845" ry="18"/>
<text text-anchor="middle" x="625.7555" y="-723.3" font-family="Times,serif" font-size="14.00" fill="#000000">Signing Scriptworkers</text>
</g>
<!-- tc&#45;&gt;sw -->
<g id="edge6" class="edge">
<title>tc&#45;&gt;sw</title>
<path fill="none" stroke="#000000" d="M440.497,-261.197C456.7422,-346.1934 524.3645,-700 524.3645,-700 524.3645,-700 541.5255,-704.5699 561.7272,-709.9496"/>
<polygon fill="#000000" stroke="#000000" points="560.9341,-713.3603 571.4981,-712.5515 562.7355,-706.596 560.9341,-713.3603"/>
</g>
<!-- as -->
<g id="node12" class="node">
<title>as</title>
<ellipse fill="none" stroke="#000000" cx="625.7555" cy="-511" rx="86.3847" ry="18"/>
<text text-anchor="middle" x="625.7555" y="-507.3" font-family="Times,serif" font-size="14.00" fill="#000000">Addon Scriptworkers</text>
</g>
<!-- tc&#45;&gt;as -->
<g id="edge7" class="edge">
<title>tc&#45;&gt;as</title>
<path fill="none" stroke="#000000" d="M443.5841,-261.1142C463.8973,-317.1615 524.3645,-484 524.3645,-484 524.3645,-484 541.9501,-488.683 562.4737,-494.1483"/>
<polygon fill="#000000" stroke="#000000" points="561.8238,-497.5972 572.3877,-496.7884 563.6251,-490.8329 561.8238,-497.5972"/>
</g>
<!-- pas -->
<g id="node15" class="node">
<title>pas</title>
<ellipse fill="none" stroke="#000000" cx="625.7555" cy="-457" rx="92.0841" ry="18"/>
<text text-anchor="middle" x="625.7555" y="-453.3" font-family="Times,serif" font-size="14.00" fill="#000000">Pushapk Scriptworkers</text>
</g>
<!-- tc&#45;&gt;pas -->
<g id="edge11" class="edge">
<title>tc&#45;&gt;pas</title>
<path fill="none" stroke="#000000" d="M445.3941,-260.9303C467.2559,-307.7349 524.3645,-430 524.3645,-430 524.3645,-430 541.3851,-434.5325 561.479,-439.8834"/>
<polygon fill="#000000" stroke="#000000" points="560.6378,-443.2813 571.2017,-442.4726 562.4392,-436.5171 560.6378,-443.2813"/>
</g>
<!-- pss -->
<g id="node16" class="node">
<title>pss</title>
<ellipse fill="none" stroke="#000000" cx="625.7555" cy="-403" rx="95.5831" ry="18"/>
<text text-anchor="middle" x="625.7555" y="-399.3" font-family="Times,serif" font-size="14.00" fill="#000000">Pushsnap Scriptworkers</text>
</g>
<!-- tc&#45;&gt;pss -->
<g id="edge12" class="edge">
<title>tc&#45;&gt;pss</title>
<path fill="none" stroke="#000000" d="M448.6178,-260.6614C472.3775,-296.84 524.3645,-376 524.3645,-376 524.3645,-376 540.8176,-380.3814 560.4681,-385.6142"/>
<polygon fill="#000000" stroke="#000000" points="559.7495,-389.0448 570.3135,-388.236 561.5509,-382.2805 559.7495,-389.0448"/>
</g>
<!-- sis -->
<g id="node17" class="node">
<title>sis</title>
<ellipse fill="none" stroke="#000000" cx="625.7555" cy="-349" rx="86.3847" ry="18"/>
<text text-anchor="middle" x="625.7555" y="-345.3" font-family="Times,serif" font-size="14.00" fill="#000000">Ship It Scriptworkers</text>
</g>
<!-- tc&#45;&gt;sis -->
<g id="edge13" class="edge">
<title>tc&#45;&gt;sis</title>
<path fill="none" stroke="#000000" d="M455.9717,-260.1418C481.6607,-283.3764 524.3645,-322 524.3645,-322 524.3645,-322 541.9501,-326.683 562.4737,-332.1483"/>
<polygon fill="#000000" stroke="#000000" points="561.8238,-335.5972 572.3877,-334.7884 563.6251,-328.8329 561.8238,-335.5972"/>
</g>
<!-- ts -->
<g id="node18" class="node">
<title>ts</title>
<ellipse fill="none" stroke="#000000" cx="625.7555" cy="-295" rx="78.7863" ry="18"/>
<text text-anchor="middle" x="625.7555" y="-291.3" font-family="Times,serif" font-size="14.00" fill="#000000">Tree Scriptworkers</text>
</g>
<!-- tc&#45;&gt;ts -->
<g id="edge14" class="edge">
<title>tc&#45;&gt;ts</title>
<path fill="none" stroke="#000000" d="M476.8577,-254.4026C499.8942,-260.9961 524.3645,-268 524.3645,-268 524.3645,-268 543.1297,-272.9971 564.5142,-278.6917"/>
<polygon fill="#000000" stroke="#000000" points="563.902,-282.1506 574.4659,-281.3418 565.7033,-275.3863 563.902,-282.1506"/>
</g>
<!-- hg -->
<g id="node2" class="node">
<title>hg</title>
<ellipse fill="none" stroke="#000000" cx="284.0294" cy="-243" rx="63.0888" ry="18"/>
<text text-anchor="middle" x="284.0294" y="-239.3" font-family="Times,serif" font-size="14.00" fill="#000000">hg.mozilla.org</text>
</g>
<!-- hg&#45;&gt;tc -->
<g id="edge2" class="edge">
<title>hg&#45;&gt;tc</title>
<path fill="none" stroke="#000000" d="M347.1394,-243C356.3491,-243 365.826,-243 375.0135,-243"/>
<polygon fill="#000000" stroke="#000000" points="375.2338,-246.5001 385.2337,-243 375.2337,-239.5001 375.2338,-246.5001"/>
</g>
<!-- shipit -->
<g id="node3" class="node">
<title>shipit</title>
<ellipse fill="none" stroke="#000000" cx="830.0905" cy="-27" rx="34.394" ry="18"/>
<text text-anchor="middle" x="830.0905" y="-23.3" font-family="Times,serif" font-size="14.00" fill="#000000">Ship It</text>
</g>
<!-- rr -->
<g id="node14" class="node">
<title>rr</title>
<ellipse fill="none" stroke="#000000" cx="999.3287" cy="-295" rx="66.0889" ry="18"/>
<text text-anchor="middle" x="999.3287" y="-291.3" font-family="Times,serif" font-size="14.00" fill="#000000">Release Runner</text>
</g>
<!-- shipit&#45;&gt;rr -->
<g id="edge22" class="edge">
<title>shipit&#45;&gt;rr</title>
<path fill="none" stroke="#000000" d="M857.7058,-38.1378C876.1462,-45.5753 897.0346,-54 897.0346,-54 897.0346,-54 960.8408,-204.3242 987.6675,-267.5266"/>
<polygon fill="#000000" stroke="#000000" points="984.511,-269.0482 991.64,-276.8858 990.9546,-266.3132 984.511,-269.0482"/>
</g>
<!-- gh -->
<g id="node5" class="node">
<title>gh</title>
<ellipse fill="none" stroke="#000000" cx="99.1926" cy="-856" rx="35.194" ry="18"/>
<text text-anchor="middle" x="99.1926" y="-852.3" font-family="Times,serif" font-size="14.00" fill="#000000">Github</text>
</g>
<!-- pm -->
<g id="node20" class="node">
<title>pm</title>
<ellipse fill="none" stroke="#000000" cx="284.0294" cy="-781" rx="65.7887" ry="18"/>
<text text-anchor="middle" x="284.0294" y="-777.3" font-family="Times,serif" font-size="14.00" fill="#000000">Puppet Masters</text>
</g>
<!-- gh&#45;&gt;pm -->
<g id="edge1" class="edge">
<title>gh&#45;&gt;pm</title>
<path fill="none" stroke="#000000" d="M130.6442,-847.6827C154.2029,-841.4527 182.3852,-834 182.3852,-834 182.3852,-834 215.732,-816.6121 244.225,-801.7551"/>
<polygon fill="#000000" stroke="#000000" points="246.0082,-804.7726 253.257,-797.0456 242.7717,-798.5657 246.0082,-804.7726"/>
</g>
<!-- S3 -->
<g id="node24" class="node">
<title>S3</title>
<ellipse fill="none" stroke="#000000" cx="830.0905" cy="-243" rx="27" ry="18"/>
<text text-anchor="middle" x="830.0905" y="-239.3" font-family="Times,serif" font-size="14.00" fill="#000000">S3</text>
</g>
<!-- bms&#45;&gt;S3 -->
<g id="edge23" class="edge">
<title>bms&#45;&gt;S3</title>
<path fill="none" stroke="#000000" d="M682.0845,-657.9998C705.4217,-651.7852 727.1465,-646 727.1465,-646 727.1465,-646 763.1465,-265 763.1465,-265 763.1465,-265 779.422,-259.6513 795.9229,-254.2286"/>
<polygon fill="#000000" stroke="#000000" points="797.1358,-257.5142 805.5432,-251.0671 794.9503,-250.8641 797.1358,-257.5142"/>
</g>
<!-- Bouncer -->
<g id="node23" class="node">
<title>Bouncer</title>
<ellipse fill="none" stroke="#000000" cx="830.0905" cy="-189" rx="40.0939" ry="18"/>
<text text-anchor="middle" x="830.0905" y="-185.3" font-family="Times,serif" font-size="14.00" fill="#000000">Bouncer</text>
</g>
<!-- bouncesw&#45;&gt;Bouncer -->
<g id="edge15" class="edge">
<title>bouncesw&#45;&gt;Bouncer</title>
<path fill="none" stroke="#000000" d="M680.3092,-604.4726C704.3077,-598.0819 727.1465,-592 727.1465,-592 727.1465,-592 763.1465,-216 763.1465,-216 763.1465,-216 776.0477,-210.7966 790.5231,-204.9584"/>
<polygon fill="#000000" stroke="#000000" points="792.178,-208.065 800.1429,-201.0785 789.5597,-201.5731 792.178,-208.065"/>
</g>
<!-- Balrog -->
<g id="node22" class="node">
<title>Balrog</title>
<ellipse fill="none" stroke="#000000" cx="830.0905" cy="-135" rx="34.394" ry="18"/>
<text text-anchor="middle" x="830.0905" y="-131.3" font-family="Times,serif" font-size="14.00" fill="#000000">Balrog</text>
</g>
<!-- bs&#45;&gt;Balrog -->
<g id="edge16" class="edge">
<title>bs&#45;&gt;Balrog</title>
<path fill="none" stroke="#000000" d="M679.1233,-550.7884C703.5497,-544.2837 727.1465,-538 727.1465,-538 727.1465,-538 763.1465,-162 763.1465,-162 763.1465,-162 777.4715,-156.2224 792.8685,-150.0125"/>
<polygon fill="#000000" stroke="#000000" points="794.5104,-153.1243 802.4753,-146.1378 791.892,-146.6324 794.5104,-153.1243"/>
</g>
<!-- ss -->
<g id="node11" class="node">
<title>ss</title>
<ellipse fill="none" stroke="#000000" cx="830.0905" cy="-727" rx="66.8882" ry="18"/>
<text text-anchor="middle" x="830.0905" y="-723.3" font-family="Times,serif" font-size="14.00" fill="#000000">Signing Servers</text>
</g>
<!-- sw&#45;&gt;ss -->
<g id="edge21" class="edge">
<title>sw&#45;&gt;ss</title>
<path fill="none" stroke="#000000" d="M715.6772,-727C728.0573,-727 740.6808,-727 752.8064,-727"/>
<polygon fill="#000000" stroke="#000000" points="752.8586,-730.5001 762.8586,-727 752.8585,-723.5001 752.8586,-730.5001"/>
</g>
<!-- AMO -->
<g id="node21" class="node">
<title>AMO</title>
<ellipse fill="none" stroke="#000000" cx="830.0905" cy="-81" rx="31.6951" ry="18"/>
<text text-anchor="middle" x="830.0905" y="-77.3" font-family="Times,serif" font-size="14.00" fill="#000000">AMO</text>
</g>
<!-- as&#45;&gt;AMO -->
<g id="edge17" class="edge">
<title>as&#45;&gt;AMO</title>
<path fill="none" stroke="#000000" d="M679.1233,-496.7884C703.5497,-490.2837 727.1465,-484 727.1465,-484 727.1465,-484 763.1465,-108 763.1465,-108 763.1465,-108 778.5711,-101.7789 794.6124,-95.3091"/>
<polygon fill="#000000" stroke="#000000" points="796.0516,-98.5027 804.0165,-91.5162 793.4332,-92.0108 796.0516,-98.5027"/>
</g>
<!-- l10n -->
<g id="node13" class="node">
<title>l10n</title>
<ellipse fill="none" stroke="#000000" cx="99.1926" cy="-349" rx="60.3893" ry="18"/>
<text text-anchor="middle" x="99.1926" y="-345.3" font-family="Times,serif" font-size="14.00" fill="#000000">L10n Bumper</text>
</g>
<!-- l10n&#45;&gt;hg -->
<g id="edge20" class="edge">
<title>l10n&#45;&gt;hg</title>
<path fill="none" stroke="#000000" d="M140.3015,-335.6582C161.2608,-328.8559 182.3852,-322 182.3852,-322 182.3852,-322 218.3852,-265 218.3852,-265 218.3852,-265 224.5847,-262.9223 233.1733,-260.0439"/>
<polygon fill="#000000" stroke="#000000" points="234.4592,-263.3044 242.8287,-256.808 232.2348,-256.6672 234.4592,-263.3044"/>
</g>
<!-- rr&#45;&gt;tc -->
<g id="edge3" class="edge">
<title>rr&#45;&gt;tc</title>
<path fill="none" stroke="#000000" d="M993.0838,-276.9905C970.8742,-212.9416 897.0346,0 897.0346,0 897.0346,0 763.1465,0 763.1465,0 763.1465,0 548.0091,-160.3005 467.2045,-220.5086"/>
<polygon fill="#000000" stroke="#000000" points="464.8512,-217.8973 458.9236,-226.6788 469.0336,-223.5104 464.8512,-217.8973"/>
</g>
<!-- sis&#45;&gt;shipit -->
<g id="edge18" class="edge">
<title>sis&#45;&gt;shipit</title>
<path fill="none" stroke="#000000" d="M679.1233,-334.7884C703.5497,-328.2837 727.1465,-322 727.1465,-322 727.1465,-322 763.1465,-54 763.1465,-54 763.1465,-54 777.4715,-48.2224 792.8685,-42.0125"/>
<polygon fill="#000000" stroke="#000000" points="794.5104,-45.1243 802.4753,-38.1378 791.892,-38.6324 794.5104,-45.1243"/>
</g>
<!-- md -->
<g id="node19" class="node">
<title>md</title>
<ellipse fill="none" stroke="#000000" cx="99.1926" cy="-295" rx="83.3857" ry="18"/>
<text text-anchor="middle" x="99.1926" y="-291.3" font-family="Times,serif" font-size="14.00" fill="#000000">Merge Day Instance</text>
</g>
<!-- md&#45;&gt;hg -->
<g id="edge19" class="edge">
<title>md&#45;&gt;hg</title>
<path fill="none" stroke="#000000" d="M150.1894,-280.6531C174.7163,-273.753 204.1508,-265.4722 229.1635,-258.4354"/>
<polygon fill="#000000" stroke="#000000" points="230.1902,-261.7825 238.8687,-255.705 228.2945,-255.0441 230.1902,-261.7825"/>
</g>
</g>
</svg>
