<svg id="mermaid-1533313917745" width="100%" xmlns="http://www.w3.org/2000/svg" height="100%" style="max-width:3050px;" viewBox="-50 -10 3050 2193"><style>#mermaid-1533313917745 .label{font-family:trebuchet ms,verdana,arial;color:#333}#mermaid-1533313917745 .node circle,#mermaid-1533313917745 .node ellipse,#mermaid-1533313917745 .node polygon,#mermaid-1533313917745 .node rect{fill:#ececff;stroke:#9370db;stroke-width:1px}#mermaid-1533313917745 .node.clickable{cursor:pointer}#mermaid-1533313917745 .arrowheadPath{fill:#333}#mermaid-1533313917745 .edgePath .path{stroke:#333;stroke-width:1.5px}#mermaid-1533313917745 .edgeLabel{background-color:#e8e8e8}#mermaid-1533313917745 .cluster rect{fill:#ffffde!important;stroke:#aa3!important;stroke-width:1px!important}#mermaid-1533313917745 .cluster text{fill:#333}#mermaid-1533313917745 div.mermaidTooltip{position:absolute;text-align:center;max-width:200px;padding:2px;font-family:trebuchet ms,verdana,arial;font-size:12px;background:#ffffde;border:1px solid #aa3;border-radius:2px;pointer-events:none;z-index:100}#mermaid-1533313917745 .actor{stroke:#ccf;fill:#ececff}#mermaid-1533313917745 text.actor{fill:#000;stroke:none}#mermaid-1533313917745 .actor-line{stroke:grey}#mermaid-1533313917745 .messageLine0{marker-end:"url(#arrowhead)"}#mermaid-1533313917745 .messageLine0,#mermaid-1533313917745 .messageLine1{stroke-width:1.5;stroke-dasharray:"2 2";stroke:#333}#mermaid-1533313917745 #arrowhead{fill:#333}#mermaid-1533313917745 #crosshead path{fill:#333!important;stroke:#333!important}#mermaid-1533313917745 .messageText{fill:#333;stroke:none}#mermaid-1533313917745 .labelBox{stroke:#ccf;fill:#ececff}#mermaid-1533313917745 .labelText,#mermaid-1533313917745 .loopText{fill:#000;stroke:none}#mermaid-1533313917745 .loopLine{stroke-width:2;stroke-dasharray:"2 2";marker-end:"url(#arrowhead)";stroke:#ccf}#mermaid-1533313917745 .note{stroke:#aa3;fill:#fff5ad}#mermaid-1533313917745 .noteText{fill:#000;stroke:none;font-family:trebuchet ms,verdana,arial;font-size:14px}#mermaid-1533313917745 .section{stroke:none;opacity:.2}#mermaid-1533313917745 .section0{fill:rgba(102,102,255,.49)}#mermaid-1533313917745 .section2{fill:#fff400}#mermaid-1533313917745 .section1,#mermaid-1533313917745 .section3{fill:#fff;opacity:.2}#mermaid-1533313917745 .sectionTitle0,#mermaid-1533313917745 .sectionTitle1,#mermaid-1533313917745 .sectionTitle2,#mermaid-1533313917745 .sectionTitle3{fill:#333}#mermaid-1533313917745 .sectionTitle{text-anchor:start;font-size:11px;text-height:14px}#mermaid-1533313917745 .grid .tick{stroke:#d3d3d3;opacity:.3;shape-rendering:crispEdges}#mermaid-1533313917745 .grid path{stroke-width:0}#mermaid-1533313917745 .today{fill:none;stroke:red;stroke-width:2px}#mermaid-1533313917745 .task{stroke-width:2}#mermaid-1533313917745 .taskText{text-anchor:middle;font-size:11px}#mermaid-1533313917745 .taskTextOutsideRight{fill:#000;text-anchor:start;font-size:11px}#mermaid-1533313917745 .taskTextOutsideLeft{fill:#000;text-anchor:end;font-size:11px}#mermaid-1533313917745 .taskText0,#mermaid-1533313917745 .taskText1,#mermaid-1533313917745 .taskText2,#mermaid-1533313917745 .taskText3{fill:#fff}#mermaid-1533313917745 .task0,#mermaid-1533313917745 .task1,#mermaid-1533313917745 .task2,#mermaid-1533313917745 .task3{fill:#8a90dd;stroke:#534fbc}#mermaid-1533313917745 .taskTextOutside0,#mermaid-1533313917745 .taskTextOutside1,#mermaid-1533313917745 .taskTextOutside2,#mermaid-1533313917745 .taskTextOutside3{fill:#000}#mermaid-1533313917745 .active0,#mermaid-1533313917745 .active1,#mermaid-1533313917745 .active2,#mermaid-1533313917745 .active3{fill:#bfc7ff;stroke:#534fbc}#mermaid-1533313917745 .activeText0,#mermaid-1533313917745 .activeText1,#mermaid-1533313917745 .activeText2,#mermaid-1533313917745 .activeText3{fill:#000!important}#mermaid-1533313917745 .done0,#mermaid-1533313917745 .done1,#mermaid-1533313917745 .done2,#mermaid-1533313917745 .done3{stroke:grey;fill:#d3d3d3;stroke-width:2}#mermaid-1533313917745 .doneText0,#mermaid-1533313917745 .doneText1,#mermaid-1533313917745 .doneText2,#mermaid-1533313917745 .doneText3{fill:#000!important}#mermaid-1533313917745 .crit0,#mermaid-1533313917745 .crit1,#mermaid-1533313917745 .crit2,#mermaid-1533313917745 .crit3{stroke:#f88;fill:red;stroke-width:2}#mermaid-1533313917745 .activeCrit0,#mermaid-1533313917745 .activeCrit1,#mermaid-1533313917745 .activeCrit2,#mermaid-1533313917745 .activeCrit3{stroke:#f88;fill:#bfc7ff;stroke-width:2}#mermaid-1533313917745 .doneCrit0,#mermaid-1533313917745 .doneCrit1,#mermaid-1533313917745 .doneCrit2,#mermaid-1533313917745 .doneCrit3{stroke:#f88;fill:#d3d3d3;stroke-width:2;cursor:pointer;shape-rendering:crispEdges}#mermaid-1533313917745 .activeCritText0,#mermaid-1533313917745 .activeCritText1,#mermaid-1533313917745 .activeCritText2,#mermaid-1533313917745 .activeCritText3,#mermaid-1533313917745 .doneCritText0,#mermaid-1533313917745 .doneCritText1,#mermaid-1533313917745 .doneCritText2,#mermaid-1533313917745 .doneCritText3{fill:#000!important}#mermaid-1533313917745 .titleText{text-anchor:middle;font-size:18px;fill:#000}#mermaid-1533313917745 g.classGroup text{fill:#9370db;stroke:none;font-family:trebuchet ms,verdana,arial;font-size:10px}#mermaid-1533313917745 g.classGroup rect{fill:#ececff;stroke:#9370db}#mermaid-1533313917745 g.classGroup line{stroke:#9370db;stroke-width:1}#mermaid-1533313917745 .classLabel .box{stroke:none;stroke-width:0;fill:#ececff;opacity:.5}#mermaid-1533313917745 .classLabel .label{fill:#9370db;font-size:10px}#mermaid-1533313917745 .relation{stroke:#9370db;stroke-width:1;fill:none}#mermaid-1533313917745 #compositionEnd,#mermaid-1533313917745 #compositionStart{fill:#9370db;stroke:#9370db;stroke-width:1}#mermaid-1533313917745 #aggregationEnd,#mermaid-1533313917745 #aggregationStart{fill:#ececff;stroke:#9370db;stroke-width:1}#mermaid-1533313917745 #dependencyEnd,#mermaid-1533313917745 #dependencyStart,#mermaid-1533313917745 #extensionEnd,#mermaid-1533313917745 #extensionStart{fill:#9370db;stroke:#9370db;stroke-width:1}#mermaid-1533313917745 .branch-label,#mermaid-1533313917745 .commit-id,#mermaid-1533313917745 .commit-msg{fill:#d3d3d3;color:#d3d3d3}</style><style>#mermaid-1533313917745 {
    color: rgb(0, 0, 0);
    font: normal normal 400 normal 16px / normal "Times New Roman";
  }</style><g></g><g><line id="actor0" x1="75" y1="5" x2="75" y2="2182" class="actor-line" stroke-width="0.5px" stroke="#999"></line><rect x="0" y="0" fill="#eaeaea" stroke="#666" width="150" height="65" rx="3" ry="3" class="actor"></rect><text x="75" y="32.5" dominant-baseline="central" alignment-baseline="central" class="actor" style="text-anchor: middle;"><tspan x="75" dy="0">Release Manager</tspan></text></g><g><line id="actor1" x1="275" y1="5" x2="275" y2="2182" class="actor-line" stroke-width="0.5px" stroke="#999"></line><rect x="200" y="0" fill="#eaeaea" stroke="#666" width="150" height="65" rx="3" ry="3" class="actor"></rect><text x="275" y="32.5" dominant-baseline="central" alignment-baseline="central" class="actor" style="text-anchor: middle;"><tspan x="275" dy="0">Ship It</tspan></text></g><g><line id="actor2" x1="475" y1="5" x2="475" y2="2182" class="actor-line" stroke-width="0.5px" stroke="#999"></line><rect x="400" y="0" fill="#eaeaea" stroke="#666" width="150" height="65" rx="3" ry="3" class="actor"></rect><text x="475" y="32.5" dominant-baseline="central" alignment-baseline="central" class="actor" style="text-anchor: middle;"><tspan x="475" dy="0">Taskcluster</tspan></text></g><g><line id="actor3" x1="675" y1="5" x2="675" y2="2182" class="actor-line" stroke-width="0.5px" stroke="#999"></line><rect x="600" y="0" fill="#eaeaea" stroke="#666" width="150" height="65" rx="3" ry="3" class="actor"></rect><text x="675" y="32.5" dominant-baseline="central" alignment-baseline="central" class="actor" style="text-anchor: middle;"><tspan x="675" dy="0">Release Workers</tspan></text></g><g><line id="actor4" x1="875" y1="5" x2="875" y2="2182" class="actor-line" stroke-width="0.5px" stroke="#999"></line><rect x="800" y="0" fill="#eaeaea" stroke="#666" width="150" height="65" rx="3" ry="3" class="actor"></rect><text x="875" y="32.5" dominant-baseline="central" alignment-baseline="central" class="actor" style="text-anchor: middle;"><tspan x="875" dy="0">Signing Workers</tspan></text></g><g><line id="actor5" x1="1075" y1="5" x2="1075" y2="2182" class="actor-line" stroke-width="0.5px" stroke="#999"></line><rect x="1000" y="0" fill="#eaeaea" stroke="#666" width="150" height="65" rx="3" ry="3" class="actor"></rect><text x="1075" y="32.5" dominant-baseline="central" alignment-baseline="central" class="actor" style="text-anchor: middle;"><tspan x="1075" dy="0">Signing Servers</tspan></text></g><g><line id="actor6" x1="1275" y1="5" x2="1275" y2="2182" class="actor-line" stroke-width="0.5px" stroke="#999"></line><rect x="1200" y="0" fill="#eaeaea" stroke="#666" width="150" height="65" rx="3" ry="3" class="actor"></rect><text x="1275" y="32.5" dominant-baseline="central" alignment-baseline="central" class="actor" style="text-anchor: middle;"><tspan x="1275" dy="0">Beetmover Workers</tspan></text></g><g><line id="actor7" x1="1475" y1="5" x2="1475" y2="2182" class="actor-line" stroke-width="0.5px" stroke="#999"></line><rect x="1400" y="0" fill="#eaeaea" stroke="#666" width="150" height="65" rx="3" ry="3" class="actor"></rect><text x="1475" y="32.5" dominant-baseline="central" alignment-baseline="central" class="actor" style="text-anchor: middle;"><tspan x="1475" dy="0">Balrog Workers</tspan></text></g><g><line id="actor8" x1="1675" y1="5" x2="1675" y2="2182" class="actor-line" stroke-width="0.5px" stroke="#999"></line><rect x="1600" y="0" fill="#eaeaea" stroke="#666" width="150" height="65" rx="3" ry="3" class="actor"></rect><text x="1675" y="32.5" dominant-baseline="central" alignment-baseline="central" class="actor" style="text-anchor: middle;"><tspan x="1675" dy="0">Bouncer Workers</tspan></text></g><g><line id="actor9" x1="1875" y1="5" x2="1875" y2="2182" class="actor-line" stroke-width="0.5px" stroke="#999"></line><rect x="1800" y="0" fill="#eaeaea" stroke="#666" width="150" height="65" rx="3" ry="3" class="actor"></rect><text x="1875" y="32.5" dominant-baseline="central" alignment-baseline="central" class="actor" style="text-anchor: middle;"><tspan x="1875" dy="0">Shipit Workers</tspan></text></g><g><line id="actor10" x1="2075" y1="5" x2="2075" y2="2182" class="actor-line" stroke-width="0.5px" stroke="#999"></line><rect x="2000" y="0" fill="#eaeaea" stroke="#666" width="150" height="65" rx="3" ry="3" class="actor"></rect><text x="2075" y="32.5" dominant-baseline="central" alignment-baseline="central" class="actor" style="text-anchor: middle;"><tspan x="2075" dy="0">Addon Workers</tspan></text></g><g><line id="actor11" x1="2275" y1="5" x2="2275" y2="2182" class="actor-line" stroke-width="0.5px" stroke="#999"></line><rect x="2200" y="0" fill="#eaeaea" stroke="#666" width="150" height="65" rx="3" ry="3" class="actor"></rect><text x="2275" y="32.5" dominant-baseline="central" alignment-baseline="central" class="actor" style="text-anchor: middle;"><tspan x="2275" dy="0">S3</tspan></text></g><g><line id="actor12" x1="2475" y1="5" x2="2475" y2="2182" class="actor-line" stroke-width="0.5px" stroke="#999"></line><rect x="2400" y="0" fill="#eaeaea" stroke="#666" width="150" height="65" rx="3" ry="3" class="actor"></rect><text x="2475" y="32.5" dominant-baseline="central" alignment-baseline="central" class="actor" style="text-anchor: middle;"><tspan x="2475" dy="0">Balrog</tspan></text></g><g><line id="actor13" x1="2675" y1="5" x2="2675" y2="2182" class="actor-line" stroke-width="0.5px" stroke="#999"></line><rect x="2600" y="0" fill="#eaeaea" stroke="#666" width="150" height="65" rx="3" ry="3" class="actor"></rect><text x="2675" y="32.5" dominant-baseline="central" alignment-baseline="central" class="actor" style="text-anchor: middle;"><tspan x="2675" dy="0">Bouncer</tspan></text></g><g><line id="actor14" x1="2875" y1="5" x2="2875" y2="2182" class="actor-line" stroke-width="0.5px" stroke="#999"></line><rect x="2800" y="0" fill="#eaeaea" stroke="#666" width="150" height="65" rx="3" ry="3" class="actor"></rect><text x="2875" y="32.5" dominant-baseline="central" alignment-baseline="central" class="actor" style="text-anchor: middle;"><tspan x="2875" dy="0">AMO</tspan></text></g><defs><marker id="arrowhead" refX="5" refY="2" markerWidth="6" markerHeight="4" orient="auto"><path d="M 0,0 V 4 L6,2 Z"></path></marker></defs><defs><marker id="crosshead" markerWidth="15" markerHeight="8" orient="auto" refX="16" refY="4"><path fill="black" stroke="#000000" stroke-width="1px" d="M 9,2 V 6 L16,4 Z" style="stroke-dasharray: 0, 0;"></path><path fill="none" stroke="#000000" stroke-width="1px" d="M 0,1 L 6,7 M 6,1 L 0,7" style="stroke-dasharray: 0, 0;"></path></marker></defs><g><text x="175" y="93" class="messageText" style="text-anchor: middle;">Submit Release</text><line x1="75" y1="100" x2="275" y2="100" class="messageLine0" stroke-width="2" stroke="black" marker-end="url(#arrowhead)" style="fill: none;"></line></g><g><text x="375" y="128" class="messageText" style="text-anchor: middle;">Create Decision Task</text><line x1="275" y1="135" x2="475" y2="135" class="messageLine0" stroke-width="2" stroke="black" marker-end="url(#arrowhead)" style="fill: none;"></line></g><g><text x="475" y="163" class="messageText" style="text-anchor: middle;">Create Promote Graph</text><path d="M 475,170 C 535,160 535,200 475,190" class="messageLine0" stroke-width="2" stroke="black" marker-end="url(#arrowhead)" style="fill: none;"></path></g><g><text x="1175" y="228" class="messageText" style="text-anchor: middle;">Mark as Started</text><line x1="475" y1="235" x2="1875" y2="235" class="messageLine0" stroke-width="2" stroke="black" marker-end="url(#arrowhead)" style="fill: none;"></line></g><g><text x="1075" y="263" class="messageText" style="text-anchor: middle;">Mark as Started</text><line x1="1875" y1="270" x2="275" y2="270" class="messageLine0" stroke-width="2" stroke="black" marker-end="url(#arrowhead)" style="fill: none;"></line></g><g><text x="575" y="298" class="messageText" style="text-anchor: middle;">Make Bits</text><line x1="475" y1="305" x2="675" y2="305" class="messageLine0" stroke-width="2" stroke="black" marker-end="url(#arrowhead)" style="fill: none;"></line></g><g><rect x="670" y="307" fill="#f4f4f4" stroke="#666" width="10" height="473" rx="0" ry="0"></rect></g><g><rect x="450" y="315" fill="#EDF2AE" stroke="#666" width="250" height="34" rx="0" ry="0" class="note"></rect><text x="446" y="339" fill="black" class="noteText"><tspan x="466" fill="black">release-source</tspan></text></g><g><rect x="450" y="359" fill="#EDF2AE" stroke="#666" width="250" height="34" rx="0" ry="0" class="note"></rect><text x="446" y="383" fill="black" class="noteText"><tspan x="466" fill="black">nightly-l10n</tspan></text></g><g><rect x="450" y="403" fill="#EDF2AE" stroke="#666" width="250" height="34" rx="0" ry="0" class="note"></rect><text x="446" y="427" fill="black" class="noteText"><tspan x="466" fill="black">repackage-l10n</tspan></text></g><g><rect x="450" y="447" fill="#EDF2AE" stroke="#666" width="250" height="34" rx="0" ry="0" class="note"></rect><text x="446" y="471" fill="black" class="noteText"><tspan x="466" fill="black">release-snap-repackage</tspan></text></g><g><rect x="450" y="491" fill="#EDF2AE" stroke="#666" width="250" height="34" rx="0" ry="0" class="note"></rect><text x="446" y="515" fill="black" class="noteText"><tspan x="466" fill="black">release-eme-free-repack</tspan></text></g><g><rect x="450" y="535" fill="#EDF2AE" stroke="#666" width="250" height="34" rx="0" ry="0" class="note"></rect><text x="446" y="559" fill="black" class="noteText"><tspan x="466" fill="black">release-eme-free-repack-repackage</tspan></text></g><g><rect x="450" y="579" fill="#EDF2AE" stroke="#666" width="250" height="34" rx="0" ry="0" class="note"></rect><text x="446" y="603" fill="black" class="noteText"><tspan x="466" fill="black">release-partner-repack</tspan></text></g><g><rect x="450" y="623" fill="#EDF2AE" stroke="#666" width="250" height="34" rx="0" ry="0" class="note"></rect><text x="446" y="647" fill="black" class="noteText"><tspan x="466" fill="black">release-partner-repack-repackage</tspan></text></g><g><rect x="450" y="667" fill="#EDF2AE" stroke="#666" width="250" height="34" rx="0" ry="0" class="note"></rect><text x="446" y="691" fill="black" class="noteText"><tspan x="466" fill="black">partials</tspan></text></g><g><rect x="450" y="711" fill="#EDF2AE" stroke="#666" width="250" height="34" rx="0" ry="0" class="note"></rect><text x="446" y="735" fill="black" class="noteText"><tspan x="466" fill="black">release-generate-checksums</tspan></text></g><g><text x="572.5" y="773" class="messageText" style="text-anchor: middle;">Bits</text><line x1="670" y1="780" x2="475" y2="780" class="messageLine1" stroke-width="2" stroke="black" marker-end="url(#arrowhead)" style="stroke-dasharray: 3, 3; fill: none;"></line></g><g><text x="675" y="808" class="messageText" style="text-anchor: middle;">Sign Bits</text><line x1="475" y1="815" x2="875" y2="815" class="messageLine0" stroke-width="2" stroke="black" marker-end="url(#arrowhead)" style="fill: none;"></line></g><g><rect x="870" y="817" fill="#f4f4f4" stroke="#666" width="10" height="508" rx="0" ry="0"></rect></g><g><rect x="450" y="825" fill="#EDF2AE" stroke="#666" width="450" height="34" rx="0" ry="0" class="note"></rect><text x="446" y="849" fill="black" class="noteText"><tspan x="466" fill="black">release-source-signing</tspan></text></g><g><rect x="450" y="869" fill="#EDF2AE" stroke="#666" width="450" height="34" rx="0" ry="0" class="note"></rect><text x="446" y="893" fill="black" class="noteText"><tspan x="466" fill="black">release-source-checksums-signing</tspan></text></g><g><rect x="450" y="913" fill="#EDF2AE" stroke="#666" width="450" height="34" rx="0" ry="0" class="note"></rect><text x="446" y="937" fill="black" class="noteText"><tspan x="466" fill="black">nightly-l10n-signing</tspan></text></g><g><rect x="450" y="957" fill="#EDF2AE" stroke="#666" width="450" height="34" rx="0" ry="0" class="note"></rect><text x="446" y="981" fill="black" class="noteText"><tspan x="466" fill="black">repackage-signing-l10n</tspan></text></g><g><rect x="450" y="1001" fill="#EDF2AE" stroke="#666" width="450" height="34" rx="0" ry="0" class="note"></rect><text x="446" y="1025" fill="black" class="noteText"><tspan x="466" fill="black">release-eme-free-repack-signing</tspan></text></g><g><rect x="450" y="1045" fill="#EDF2AE" stroke="#666" width="450" height="34" rx="0" ry="0" class="note"></rect><text x="446" y="1069" fill="black" class="noteText"><tspan x="466" fill="black">release-partner-repack-signing</tspan></text></g><g><rect x="450" y="1089" fill="#EDF2AE" stroke="#666" width="450" height="34" rx="0" ry="0" class="note"></rect><text x="446" y="1113" fill="black" class="noteText"><tspan x="466" fill="black">release-partner-repack-repackage-signing</tspan></text></g><g><rect x="450" y="1133" fill="#EDF2AE" stroke="#666" width="450" height="34" rx="0" ry="0" class="note"></rect><text x="446" y="1157" fill="black" class="noteText"><tspan x="466" fill="black">partials-signing</tspan></text></g><g><rect x="450" y="1177" fill="#EDF2AE" stroke="#666" width="450" height="34" rx="0" ry="0" class="note"></rect><text x="446" y="1201" fill="black" class="noteText"><tspan x="466" fill="black">checksums-signing</tspan></text></g><g><rect x="450" y="1221" fill="#EDF2AE" stroke="#666" width="450" height="34" rx="0" ry="0" class="note"></rect><text x="446" y="1245" fill="black" class="noteText"><tspan x="466" fill="black">release-generate-checksums-signing</tspan></text></g><g><text x="977.5" y="1283" class="messageText" style="text-anchor: middle;">Sign Bits</text><line x1="880" y1="1290" x2="1075" y2="1290" class="messageLine0" stroke-width="2" stroke="black" marker-end="url(#arrowhead)" style="fill: none;"></line></g><g><rect x="1070" y="1292" fill="#f4f4f4" stroke="#666" width="10" height="33" rx="0" ry="0"></rect></g><g><text x="772.5" y="1318" class="messageText" style="text-anchor: middle;">Signed Bits</text><line x1="1070" y1="1325" x2="475" y2="1325" class="messageLine1" stroke-width="2" stroke="black" marker-end="url(#arrowhead)" style="stroke-dasharray: 3, 3; fill: none;"></line></g><g><text x="1275" y="1353" class="messageText" style="text-anchor: middle;">Sign and Push Langpacks</text><line x1="475" y1="1360" x2="2075" y2="1360" class="messageLine0" stroke-width="2" stroke="black" marker-end="url(#arrowhead)" style="fill: none;"></line></g><g><rect x="2070" y="1362" fill="#f4f4f4" stroke="#666" width="10" height="112" rx="0" ry="0"></rect></g><g><rect x="450" y="1370" fill="#EDF2AE" stroke="#666" width="1650" height="34" rx="0" ry="0" class="note"></rect><text x="446" y="1394" fill="black" class="noteText"><tspan x="466" fill="black">release-sign-and-push-langpacks</tspan></text></g><g><text x="2477.5" y="1432" class="messageText" style="text-anchor: middle;">Sign and Push Langpacks</text><line x1="2080" y1="1439" x2="2875" y2="1439" class="messageLine0" stroke-width="2" stroke="black" marker-end="url(#arrowhead)" style="fill: none;"></line></g><g><rect x="2870" y="1441" fill="#f4f4f4" stroke="#666" width="10" height="33" rx="0" ry="0"></rect></g><g><text x="1672.5" y="1467" class="messageText" style="text-anchor: middle;">Signed Langpacks</text><line x1="2870" y1="1474" x2="475" y2="1474" class="messageLine1" stroke-width="2" stroke="black" marker-end="url(#arrowhead)" style="stroke-dasharray: 3, 3; fill: none;"></line></g><g><text x="875" y="1502" class="messageText" style="text-anchor: middle;">Copy Bits to Candidates Dir</text><line x1="475" y1="1509" x2="1275" y2="1509" class="messageLine0" stroke-width="2" stroke="black" marker-end="url(#arrowhead)" style="fill: none;"></line></g><g><rect x="450" y="1519" fill="#EDF2AE" stroke="#666" width="850" height="34" rx="0" ry="0" class="note"></rect><text x="446" y="1543" fill="black" class="noteText"><tspan x="466" fill="black">beetmover, beetmover-checksums, beetmover-l10n, beetmover-repackage, beetmover-source, release-beetmover-signed-langpacks</tspan></text></g><g><rect x="450" y="1563" fill="#EDF2AE" stroke="#666" width="850" height="34" rx="0" ry="0" class="note"></rect><text x="446" y="1587" fill="black" class="noteText"><tspan x="466" fill="black">release-beetmover-source-checksums, release-eme-free-repack-beetmover, release-eme-free-repack-beetmover-checksums</tspan></text></g><g><rect x="450" y="1607" fill="#EDF2AE" stroke="#666" width="850" height="34" rx="0" ry="0" class="note"></rect><text x="446" y="1631" fill="black" class="noteText"><tspan x="466" fill="black">release-generate-checksums-beetmover, release-partner-repack-beetmover, release-beetmover-signed-langpacks-checksums</tspan></text></g><g><rect x="1270" y="1643" fill="#f4f4f4" stroke="#666" width="10" height="33" rx="0" ry="0"></rect></g><g><text x="1777.5" y="1669" class="messageText" style="text-anchor: middle;">Copy Bits to Candidates Dir</text><line x1="1280" y1="1676" x2="2275" y2="1676" class="messageLine0" stroke-width="2" stroke="black" marker-end="url(#arrowhead)" style="fill: none;"></line></g><g><rect x="2270" y="1670" fill="#f4f4f4" stroke="#666" width="10" height="18" rx="0" ry="0"></rect></g><g><text x="1075" y="1704" class="messageText" style="text-anchor: middle;">Submit to Bouncer</text><line x1="475" y1="1711" x2="1675" y2="1711" class="messageLine0" stroke-width="2" stroke="black" marker-end="url(#arrowhead)" style="fill: none;"></line></g><g><rect x="1670" y="1713" fill="#f4f4f4" stroke="#666" width="10" height="77" rx="0" ry="0"></rect></g><g><rect x="450" y="1721" fill="#EDF2AE" stroke="#666" width="1250" height="34" rx="0" ry="0" class="note"></rect><text x="446" y="1745" fill="black" class="noteText"><tspan x="466" fill="black">release-bouncer-sub</tspan></text></g><g><text x="2177.5" y="1783" class="messageText" style="text-anchor: middle;">Submit to Bouncer</text><line x1="1680" y1="1790" x2="2675" y2="1790" class="messageLine0" stroke-width="2" stroke="black" marker-end="url(#arrowhead)" style="fill: none;"></line></g><g><rect x="2670" y="1784" fill="#f4f4f4" stroke="#666" width="10" height="18" rx="0" ry="0"></rect></g><g><text x="975" y="1818" class="messageText" style="text-anchor: middle;">Submit to Balrog</text><line x1="475" y1="1825" x2="1475" y2="1825" class="messageLine0" stroke-width="2" stroke="black" marker-end="url(#arrowhead)" style="fill: none;"></line></g><g><rect x="1470" y="1827" fill="#f4f4f4" stroke="#666" width="10" height="77" rx="0" ry="0"></rect></g><g><rect x="450" y="1835" fill="#EDF2AE" stroke="#666" width="1050" height="34" rx="0" ry="0" class="note"></rect><text x="446" y="1859" fill="black" class="noteText"><tspan x="466" fill="black">balrog, release-balrog-submit-toplevel</tspan></text></g><g><text x="1977.5" y="1897" class="messageText" style="text-anchor: middle;">Submit to Balrog</text><line x1="1480" y1="1904" x2="2475" y2="1904" class="messageLine0" stroke-width="2" stroke="black" marker-end="url(#arrowhead)" style="fill: none;"></line></g><g><rect x="2470" y="1898" fill="#f4f4f4" stroke="#666" width="10" height="18" rx="0" ry="0"></rect></g><g><text x="575" y="1932" class="messageText" style="text-anchor: middle;">Generate Update Verify Configs</text><line x1="475" y1="1939" x2="675" y2="1939" class="messageLine0" stroke-width="2" stroke="black" marker-end="url(#arrowhead)" style="fill: none;"></line></g><g><rect x="670" y="1941" fill="#f4f4f4" stroke="#666" width="10" height="77" rx="0" ry="0"></rect></g><g><rect x="450" y="1949" fill="#EDF2AE" stroke="#666" width="250" height="34" rx="0" ry="0" class="note"></rect><text x="446" y="1973" fill="black" class="noteText"><tspan x="466" fill="black">release-update-verify-config</tspan></text></g><g><text x="572.5" y="2011" class="messageText" style="text-anchor: middle;">Update Verify Configs</text><line x1="670" y1="2018" x2="475" y2="2018" class="messageLine1" stroke-width="2" stroke="black" marker-end="url(#arrowhead)" style="stroke-dasharray: 3, 3; fill: none;"></line></g><g><text x="575" y="2046" class="messageText" style="text-anchor: middle;">Verify Updates</text><line x1="475" y1="2053" x2="675" y2="2053" class="messageLine0" stroke-width="2" stroke="black" marker-end="url(#arrowhead)" style="fill: none;"></line></g><g><rect x="450" y="2063" fill="#EDF2AE" stroke="#666" width="250" height="34" rx="0" ry="0" class="note"></rect><text x="446" y="2087" fill="black" class="noteText"><tspan x="466" fill="black">release-update-verify</tspan></text></g><g><rect x="0" y="2117" fill="#eaeaea" stroke="#666" width="150" height="65" rx="3" ry="3" class="actor"></rect><text x="75" y="2149.5" dominant-baseline="central" alignment-baseline="central" class="actor" style="text-anchor: middle;"><tspan x="75" dy="0">Release Manager</tspan></text></g><g><rect x="200" y="2117" fill="#eaeaea" stroke="#666" width="150" height="65" rx="3" ry="3" class="actor"></rect><text x="275" y="2149.5" dominant-baseline="central" alignment-baseline="central" class="actor" style="text-anchor: middle;"><tspan x="275" dy="0">Ship It</tspan></text></g><g><rect x="400" y="2117" fill="#eaeaea" stroke="#666" width="150" height="65" rx="3" ry="3" class="actor"></rect><text x="475" y="2149.5" dominant-baseline="central" alignment-baseline="central" class="actor" style="text-anchor: middle;"><tspan x="475" dy="0">Taskcluster</tspan></text></g><g><rect x="600" y="2117" fill="#eaeaea" stroke="#666" width="150" height="65" rx="3" ry="3" class="actor"></rect><text x="675" y="2149.5" dominant-baseline="central" alignment-baseline="central" class="actor" style="text-anchor: middle;"><tspan x="675" dy="0">Release Workers</tspan></text></g><g><rect x="800" y="2117" fill="#eaeaea" stroke="#666" width="150" height="65" rx="3" ry="3" class="actor"></rect><text x="875" y="2149.5" dominant-baseline="central" alignment-baseline="central" class="actor" style="text-anchor: middle;"><tspan x="875" dy="0">Signing Workers</tspan></text></g><g><rect x="1000" y="2117" fill="#eaeaea" stroke="#666" width="150" height="65" rx="3" ry="3" class="actor"></rect><text x="1075" y="2149.5" dominant-baseline="central" alignment-baseline="central" class="actor" style="text-anchor: middle;"><tspan x="1075" dy="0">Signing Servers</tspan></text></g><g><rect x="1200" y="2117" fill="#eaeaea" stroke="#666" width="150" height="65" rx="3" ry="3" class="actor"></rect><text x="1275" y="2149.5" dominant-baseline="central" alignment-baseline="central" class="actor" style="text-anchor: middle;"><tspan x="1275" dy="0">Beetmover Workers</tspan></text></g><g><rect x="1400" y="2117" fill="#eaeaea" stroke="#666" width="150" height="65" rx="3" ry="3" class="actor"></rect><text x="1475" y="2149.5" dominant-baseline="central" alignment-baseline="central" class="actor" style="text-anchor: middle;"><tspan x="1475" dy="0">Balrog Workers</tspan></text></g><g><rect x="1600" y="2117" fill="#eaeaea" stroke="#666" width="150" height="65" rx="3" ry="3" class="actor"></rect><text x="1675" y="2149.5" dominant-baseline="central" alignment-baseline="central" class="actor" style="text-anchor: middle;"><tspan x="1675" dy="0">Bouncer Workers</tspan></text></g><g><rect x="1800" y="2117" fill="#eaeaea" stroke="#666" width="150" height="65" rx="3" ry="3" class="actor"></rect><text x="1875" y="2149.5" dominant-baseline="central" alignment-baseline="central" class="actor" style="text-anchor: middle;"><tspan x="1875" dy="0">Shipit Workers</tspan></text></g><g><rect x="2000" y="2117" fill="#eaeaea" stroke="#666" width="150" height="65" rx="3" ry="3" class="actor"></rect><text x="2075" y="2149.5" dominant-baseline="central" alignment-baseline="central" class="actor" style="text-anchor: middle;"><tspan x="2075" dy="0">Addon Workers</tspan></text></g><g><rect x="2200" y="2117" fill="#eaeaea" stroke="#666" width="150" height="65" rx="3" ry="3" class="actor"></rect><text x="2275" y="2149.5" dominant-baseline="central" alignment-baseline="central" class="actor" style="text-anchor: middle;"><tspan x="2275" dy="0">S3</tspan></text></g><g><rect x="2400" y="2117" fill="#eaeaea" stroke="#666" width="150" height="65" rx="3" ry="3" class="actor"></rect><text x="2475" y="2149.5" dominant-baseline="central" alignment-baseline="central" class="actor" style="text-anchor: middle;"><tspan x="2475" dy="0">Balrog</tspan></text></g><g><rect x="2600" y="2117" fill="#eaeaea" stroke="#666" width="150" height="65" rx="3" ry="3" class="actor"></rect><text x="2675" y="2149.5" dominant-baseline="central" alignment-baseline="central" class="actor" style="text-anchor: middle;"><tspan x="2675" dy="0">Bouncer</tspan></text></g><g><rect x="2800" y="2117" fill="#eaeaea" stroke="#666" width="150" height="65" rx="3" ry="3" class="actor"></rect><text x="2875" y="2149.5" dominant-baseline="central" alignment-baseline="central" class="actor" style="text-anchor: middle;"><tspan x="2875" dy="0">AMO</tspan></text></g></svg>