<svg id="mermaid-1533133729034" width="100%" xmlns="http://www.w3.org/2000/svg" height="100%" style="max-width:3050px;" viewBox="-50 -10 3050 2891"><style>#mermaid-1533133729034 .label{font-family:trebuchet ms,verdana,arial;color:#333}#mermaid-1533133729034 .node circle,#mermaid-1533133729034 .node ellipse,#mermaid-1533133729034 .node polygon,#mermaid-1533133729034 .node rect{fill:#ececff;stroke:#9370db;stroke-width:1px}#mermaid-1533133729034 .node.clickable{cursor:pointer}#mermaid-1533133729034 .arrowheadPath{fill:#333}#mermaid-1533133729034 .edgePath .path{stroke:#333;stroke-width:1.5px}#mermaid-1533133729034 .edgeLabel{background-color:#e8e8e8}#mermaid-1533133729034 .cluster rect{fill:#ffffde!important;stroke:#aa3!important;stroke-width:1px!important}#mermaid-1533133729034 .cluster text{fill:#333}#mermaid-1533133729034 div.mermaidTooltip{position:absolute;text-align:center;max-width:200px;padding:2px;font-family:trebuchet ms,verdana,arial;font-size:12px;background:#ffffde;border:1px solid #aa3;border-radius:2px;pointer-events:none;z-index:100}#mermaid-1533133729034 .actor{stroke:#ccf;fill:#ececff}#mermaid-1533133729034 text.actor{fill:#000;stroke:none}#mermaid-1533133729034 .actor-line{stroke:grey}#mermaid-1533133729034 .messageLine0{marker-end:"url(#arrowhead)"}#mermaid-1533133729034 .messageLine0,#mermaid-1533133729034 .messageLine1{stroke-width:1.5;stroke-dasharray:"2 2";stroke:#333}#mermaid-1533133729034 #arrowhead{fill:#333}#mermaid-1533133729034 #crosshead path{fill:#333!important;stroke:#333!important}#mermaid-1533133729034 .messageText{fill:#333;stroke:none}#mermaid-1533133729034 .labelBox{stroke:#ccf;fill:#ececff}#mermaid-1533133729034 .labelText,#mermaid-1533133729034 .loopText{fill:#000;stroke:none}#mermaid-1533133729034 .loopLine{stroke-width:2;stroke-dasharray:"2 2";marker-end:"url(#arrowhead)";stroke:#ccf}#mermaid-1533133729034 .note{stroke:#aa3;fill:#fff5ad}#mermaid-1533133729034 .noteText{fill:#000;stroke:none;font-family:trebuchet ms,verdana,arial;font-size:14px}#mermaid-1533133729034 .section{stroke:none;opacity:.2}#mermaid-1533133729034 .section0{fill:rgba(102,102,255,.49)}#mermaid-1533133729034 .section2{fill:#fff400}#mermaid-1533133729034 .section1,#mermaid-1533133729034 .section3{fill:#fff;opacity:.2}#mermaid-1533133729034 .sectionTitle0,#mermaid-1533133729034 .sectionTitle1,#mermaid-1533133729034 .sectionTitle2,#mermaid-1533133729034 .sectionTitle3{fill:#333}#mermaid-1533133729034 .sectionTitle{text-anchor:start;font-size:11px;text-height:14px}#mermaid-1533133729034 .grid .tick{stroke:#d3d3d3;opacity:.3;shape-rendering:crispEdges}#mermaid-1533133729034 .grid path{stroke-width:0}#mermaid-1533133729034 .today{fill:none;stroke:red;stroke-width:2px}#mermaid-1533133729034 .task{stroke-width:2}#mermaid-1533133729034 .taskText{text-anchor:middle;font-size:11px}#mermaid-1533133729034 .taskTextOutsideRight{fill:#000;text-anchor:start;font-size:11px}#mermaid-1533133729034 .taskTextOutsideLeft{fill:#000;text-anchor:end;font-size:11px}#mermaid-1533133729034 .taskText0,#mermaid-1533133729034 .taskText1,#mermaid-1533133729034 .taskText2,#mermaid-1533133729034 .taskText3{fill:#fff}#mermaid-1533133729034 .task0,#mermaid-1533133729034 .task1,#mermaid-1533133729034 .task2,#mermaid-1533133729034 .task3{fill:#8a90dd;stroke:#534fbc}#mermaid-1533133729034 .taskTextOutside0,#mermaid-1533133729034 .taskTextOutside1,#mermaid-1533133729034 .taskTextOutside2,#mermaid-1533133729034 .taskTextOutside3{fill:#000}#mermaid-1533133729034 .active0,#mermaid-1533133729034 .active1,#mermaid-1533133729034 .active2,#mermaid-1533133729034 .active3{fill:#bfc7ff;stroke:#534fbc}#mermaid-1533133729034 .activeText0,#mermaid-1533133729034 .activeText1,#mermaid-1533133729034 .activeText2,#mermaid-1533133729034 .activeText3{fill:#000!important}#mermaid-1533133729034 .done0,#mermaid-1533133729034 .done1,#mermaid-1533133729034 .done2,#mermaid-1533133729034 .done3{stroke:grey;fill:#d3d3d3;stroke-width:2}#mermaid-1533133729034 .doneText0,#mermaid-1533133729034 .doneText1,#mermaid-1533133729034 .doneText2,#mermaid-1533133729034 .doneText3{fill:#000!important}#mermaid-1533133729034 .crit0,#mermaid-1533133729034 .crit1,#mermaid-1533133729034 .crit2,#mermaid-1533133729034 .crit3{stroke:#f88;fill:red;stroke-width:2}#mermaid-1533133729034 .activeCrit0,#mermaid-1533133729034 .activeCrit1,#mermaid-1533133729034 .activeCrit2,#mermaid-1533133729034 .activeCrit3{stroke:#f88;fill:#bfc7ff;stroke-width:2}#mermaid-1533133729034 .doneCrit0,#mermaid-1533133729034 .doneCrit1,#mermaid-1533133729034 .doneCrit2,#mermaid-1533133729034 .doneCrit3{stroke:#f88;fill:#d3d3d3;stroke-width:2;cursor:pointer;shape-rendering:crispEdges}#mermaid-1533133729034 .activeCritText0,#mermaid-1533133729034 .activeCritText1,#mermaid-1533133729034 .activeCritText2,#mermaid-1533133729034 .activeCritText3,#mermaid-1533133729034 .doneCritText0,#mermaid-1533133729034 .doneCritText1,#mermaid-1533133729034 .doneCritText2,#mermaid-1533133729034 .doneCritText3{fill:#000!important}#mermaid-1533133729034 .titleText{text-anchor:middle;font-size:18px;fill:#000}#mermaid-1533133729034 g.classGroup text{fill:#9370db;stroke:none;font-family:trebuchet ms,verdana,arial;font-size:10px}#mermaid-1533133729034 g.classGroup rect{fill:#ececff;stroke:#9370db}#mermaid-1533133729034 g.classGroup line{stroke:#9370db;stroke-width:1}#mermaid-1533133729034 .classLabel .box{stroke:none;stroke-width:0;fill:#ececff;opacity:.5}#mermaid-1533133729034 .classLabel .label{fill:#9370db;font-size:10px}#mermaid-1533133729034 .relation{stroke:#9370db;stroke-width:1;fill:none}#mermaid-1533133729034 #compositionEnd,#mermaid-1533133729034 #compositionStart{fill:#9370db;stroke:#9370db;stroke-width:1}#mermaid-1533133729034 #aggregationEnd,#mermaid-1533133729034 #aggregationStart{fill:#ececff;stroke:#9370db;stroke-width:1}#mermaid-1533133729034 #dependencyEnd,#mermaid-1533133729034 #dependencyStart,#mermaid-1533133729034 #extensionEnd,#mermaid-1533133729034 #extensionStart{fill:#9370db;stroke:#9370db;stroke-width:1}#mermaid-1533133729034 .branch-label,#mermaid-1533133729034 .commit-id,#mermaid-1533133729034 .commit-msg{fill:#d3d3d3;color:#d3d3d3}</style><style>#mermaid-1533133729034 {
    color: rgb(0, 0, 0);
    font: normal normal 400 normal 16px / normal "Times New Roman";
  }</style><g></g><g><line id="actor0" x1="75" y1="5" x2="75" y2="2880" class="actor-line" stroke-width="0.5px" stroke="#999"></line><rect x="0" y="0" fill="#eaeaea" stroke="#666" width="150" height="65" rx="3" ry="3" class="actor"></rect><text x="75" y="32.5" dominant-baseline="central" alignment-baseline="central" class="actor" style="text-anchor: middle;"><tspan x="75" dy="0">Release Manager</tspan></text></g><g><line id="actor1" x1="275" y1="5" x2="275" y2="2880" class="actor-line" stroke-width="0.5px" stroke="#999"></line><rect x="200" y="0" fill="#eaeaea" stroke="#666" width="150" height="65" rx="3" ry="3" class="actor"></rect><text x="275" y="32.5" dominant-baseline="central" alignment-baseline="central" class="actor" style="text-anchor: middle;"><tspan x="275" dy="0">Ship It</tspan></text></g><g><line id="actor2" x1="475" y1="5" x2="475" y2="2880" class="actor-line" stroke-width="0.5px" stroke="#999"></line><rect x="400" y="0" fill="#eaeaea" stroke="#666" width="150" height="65" rx="3" ry="3" class="actor"></rect><text x="475" y="32.5" dominant-baseline="central" alignment-baseline="central" class="actor" style="text-anchor: middle;"><tspan x="475" dy="0">Taskcluster</tspan></text></g><g><line id="actor3" x1="675" y1="5" x2="675" y2="2880" class="actor-line" stroke-width="0.5px" stroke="#999"></line><rect x="600" y="0" fill="#eaeaea" stroke="#666" width="150" height="65" rx="3" ry="3" class="actor"></rect><text x="675" y="32.5" dominant-baseline="central" alignment-baseline="central" class="actor" style="text-anchor: middle;"><tspan x="675" dy="0">Release Workers</tspan></text></g><g><line id="actor4" x1="875" y1="5" x2="875" y2="2880" class="actor-line" stroke-width="0.5px" stroke="#999"></line><rect x="800" y="0" fill="#eaeaea" stroke="#666" width="150" height="65" rx="3" ry="3" class="actor"></rect><text x="875" y="32.5" dominant-baseline="central" alignment-baseline="central" class="actor" style="text-anchor: middle;"><tspan x="875" dy="0">Signing Workers</tspan></text></g><g><line id="actor5" x1="1075" y1="5" x2="1075" y2="2880" class="actor-line" stroke-width="0.5px" stroke="#999"></line><rect x="1000" y="0" fill="#eaeaea" stroke="#666" width="150" height="65" rx="3" ry="3" class="actor"></rect><text x="1075" y="32.5" dominant-baseline="central" alignment-baseline="central" class="actor" style="text-anchor: middle;"><tspan x="1075" dy="0">Signing Servers</tspan></text></g><g><line id="actor6" x1="1275" y1="5" x2="1275" y2="2880" class="actor-line" stroke-width="0.5px" stroke="#999"></line><rect x="1200" y="0" fill="#eaeaea" stroke="#666" width="150" height="65" rx="3" ry="3" class="actor"></rect><text x="1275" y="32.5" dominant-baseline="central" alignment-baseline="central" class="actor" style="text-anchor: middle;"><tspan x="1275" dy="0">Beetmover Workers</tspan></text></g><g><line id="actor7" x1="1475" y1="5" x2="1475" y2="2880" class="actor-line" stroke-width="0.5px" stroke="#999"></line><rect x="1400" y="0" fill="#eaeaea" stroke="#666" width="150" height="65" rx="3" ry="3" class="actor"></rect><text x="1475" y="32.5" dominant-baseline="central" alignment-baseline="central" class="actor" style="text-anchor: middle;"><tspan x="1475" dy="0">Balrog Workers</tspan></text></g><g><line id="actor8" x1="1675" y1="5" x2="1675" y2="2880" class="actor-line" stroke-width="0.5px" stroke="#999"></line><rect x="1600" y="0" fill="#eaeaea" stroke="#666" width="150" height="65" rx="3" ry="3" class="actor"></rect><text x="1675" y="32.5" dominant-baseline="central" alignment-baseline="central" class="actor" style="text-anchor: middle;"><tspan x="1675" dy="0">Bouncer Workers</tspan></text></g><g><line id="actor9" x1="1875" y1="5" x2="1875" y2="2880" class="actor-line" stroke-width="0.5px" stroke="#999"></line><rect x="1800" y="0" fill="#eaeaea" stroke="#666" width="150" height="65" rx="3" ry="3" class="actor"></rect><text x="1875" y="32.5" dominant-baseline="central" alignment-baseline="central" class="actor" style="text-anchor: middle;"><tspan x="1875" dy="0">Shipit Workers</tspan></text></g><g><line id="actor10" x1="2075" y1="5" x2="2075" y2="2880" class="actor-line" stroke-width="0.5px" stroke="#999"></line><rect x="2000" y="0" fill="#eaeaea" stroke="#666" width="150" height="65" rx="3" ry="3" class="actor"></rect><text x="2075" y="32.5" dominant-baseline="central" alignment-baseline="central" class="actor" style="text-anchor: middle;"><tspan x="2075" dy="0">Addon Workers</tspan></text></g><g><line id="actor11" x1="2275" y1="5" x2="2275" y2="2880" class="actor-line" stroke-width="0.5px" stroke="#999"></line><rect x="2200" y="0" fill="#eaeaea" stroke="#666" width="150" height="65" rx="3" ry="3" class="actor"></rect><text x="2275" y="32.5" dominant-baseline="central" alignment-baseline="central" class="actor" style="text-anchor: middle;"><tspan x="2275" dy="0">S3</tspan></text></g><g><line id="actor12" x1="2475" y1="5" x2="2475" y2="2880" class="actor-line" stroke-width="0.5px" stroke="#999"></line><rect x="2400" y="0" fill="#eaeaea" stroke="#666" width="150" height="65" rx="3" ry="3" class="actor"></rect><text x="2475" y="32.5" dominant-baseline="central" alignment-baseline="central" class="actor" style="text-anchor: middle;"><tspan x="2475" dy="0">Balrog</tspan></text></g><g><line id="actor13" x1="2675" y1="5" x2="2675" y2="2880" class="actor-line" stroke-width="0.5px" stroke="#999"></line><rect x="2600" y="0" fill="#eaeaea" stroke="#666" width="150" height="65" rx="3" ry="3" class="actor"></rect><text x="2675" y="32.5" dominant-baseline="central" alignment-baseline="central" class="actor" style="text-anchor: middle;"><tspan x="2675" dy="0">Bouncer</tspan></text></g><g><line id="actor14" x1="2875" y1="5" x2="2875" y2="2880" class="actor-line" stroke-width="0.5px" stroke="#999"></line><rect x="2800" y="0" fill="#eaeaea" stroke="#666" width="150" height="65" rx="3" ry="3" class="actor"></rect><text x="2875" y="32.5" dominant-baseline="central" alignment-baseline="central" class="actor" style="text-anchor: middle;"><tspan x="2875" dy="0">AMO</tspan></text></g><defs><marker id="arrowhead" refX="5" refY="2" markerWidth="6" markerHeight="4" orient="auto"><path d="M 0,0 V 4 L6,2 Z"></path></marker></defs><defs><marker id="crosshead" markerWidth="15" markerHeight="8" orient="auto" refX="16" refY="4"><path fill="black" stroke="#000000" stroke-width="1px" d="M 9,2 V 6 L16,4 Z" style="stroke-dasharray: 0, 0;"></path><path fill="none" stroke="#000000" stroke-width="1px" d="M 0,1 L 6,7 M 6,1 L 0,7" style="stroke-dasharray: 0, 0;"></path></marker></defs><g><text x="175" y="93" class="messageText" style="text-anchor: middle;">Submit Release</text><line x1="75" y1="100" x2="275" y2="100" class="messageLine0" stroke-width="2" stroke="black" marker-end="url(#arrowhead)" style="fill: none;"></line></g><g><text x="375" y="128" class="messageText" style="text-anchor: middle;">Create Decision Task</text><line x1="275" y1="135" x2="475" y2="135" class="messageLine0" stroke-width="2" stroke="black" marker-end="url(#arrowhead)" style="fill: none;"></line></g><g><text x="475" y="163" class="messageText" style="text-anchor: middle;">Create Promote Graph</text><path d="M 475,170 C 535,160 535,200 475,190" class="messageLine0" stroke-width="2" stroke="black" marker-end="url(#arrowhead)" style="fill: none;"></path></g><g><text x="1175" y="228" class="messageText" style="text-anchor: middle;">Mark as Started</text><line x1="475" y1="235" x2="1875" y2="235" class="messageLine0" stroke-width="2" stroke="black" marker-end="url(#arrowhead)" style="fill: none;"></line></g><g><text x="1075" y="263" class="messageText" style="text-anchor: middle;">Mark as Started</text><line x1="1875" y1="270" x2="275" y2="270" class="messageLine0" stroke-width="2" stroke="black" marker-end="url(#arrowhead)" style="fill: none;"></line></g><g><text x="575" y="298" class="messageText" style="text-anchor: middle;">Make Source Package</text><line x1="475" y1="305" x2="675" y2="305" class="messageLine0" stroke-width="2" stroke="black" marker-end="url(#arrowhead)" style="fill: none;"></line></g><g><rect x="670" y="307" fill="#f4f4f4" stroke="#666" width="10" height="77" rx="0" ry="0"></rect></g><g><rect x="450" y="315" fill="#EDF2AE" stroke="#666" width="250" height="34" rx="0" ry="0" class="note"></rect><text x="446" y="339" fill="black" class="noteText"><tspan x="466" fill="black">release-source</tspan></text></g><g><text x="572.5" y="377" class="messageText" style="text-anchor: middle;">Source Package</text><line x1="670" y1="384" x2="475" y2="384" class="messageLine1" stroke-width="2" stroke="black" marker-end="url(#arrowhead)" style="stroke-dasharray: 3, 3; fill: none;"></line></g><g><text x="675" y="412" class="messageText" style="text-anchor: middle;">Sign Source Package</text><line x1="475" y1="419" x2="875" y2="419" class="messageLine0" stroke-width="2" stroke="black" marker-end="url(#arrowhead)" style="fill: none;"></line></g><g><rect x="870" y="421" fill="#f4f4f4" stroke="#666" width="10" height="112" rx="0" ry="0"></rect></g><g><rect x="450" y="429" fill="#EDF2AE" stroke="#666" width="450" height="34" rx="0" ry="0" class="note"></rect><text x="446" y="453" fill="black" class="noteText"><tspan x="466" fill="black">release-source-signing</tspan></text></g><g><text x="977.5" y="491" class="messageText" style="text-anchor: middle;">Sign Source Package</text><line x1="880" y1="498" x2="1075" y2="498" class="messageLine0" stroke-width="2" stroke="black" marker-end="url(#arrowhead)" style="fill: none;"></line></g><g><rect x="1070" y="500" fill="#f4f4f4" stroke="#666" width="10" height="33" rx="0" ry="0"></rect></g><g><text x="772.5" y="526" class="messageText" style="text-anchor: middle;">Signed Source Package</text><line x1="1070" y1="533" x2="475" y2="533" class="messageLine1" stroke-width="2" stroke="black" marker-end="url(#arrowhead)" style="stroke-dasharray: 3, 3; fill: none;"></line></g><g><text x="575" y="561" class="messageText" style="text-anchor: middle;">Make L10N Repacks</text><line x1="475" y1="568" x2="675" y2="568" class="messageLine0" stroke-width="2" stroke="black" marker-end="url(#arrowhead)" style="fill: none;"></line></g><g><rect x="670" y="570" fill="#f4f4f4" stroke="#666" width="10" height="77" rx="0" ry="0"></rect></g><g><rect x="450" y="578" fill="#EDF2AE" stroke="#666" width="250" height="34" rx="0" ry="0" class="note"></rect><text x="446" y="602" fill="black" class="noteText"><tspan x="466" fill="black">nightly-l10n</tspan></text></g><g><text x="572.5" y="640" class="messageText" style="text-anchor: middle;">L10N Repacks</text><line x1="670" y1="647" x2="475" y2="647" class="messageLine1" stroke-width="2" stroke="black" marker-end="url(#arrowhead)" style="stroke-dasharray: 3, 3; fill: none;"></line></g><g><text x="675" y="675" class="messageText" style="text-anchor: middle;">Sign L10N Internals</text><line x1="475" y1="682" x2="875" y2="682" class="messageLine0" stroke-width="2" stroke="black" marker-end="url(#arrowhead)" style="fill: none;"></line></g><g><rect x="870" y="684" fill="#f4f4f4" stroke="#666" width="10" height="112" rx="0" ry="0"></rect></g><g><rect x="450" y="692" fill="#EDF2AE" stroke="#666" width="450" height="34" rx="0" ry="0" class="note"></rect><text x="446" y="716" fill="black" class="noteText"><tspan x="466" fill="black">nightly-l10n-signing</tspan></text></g><g><text x="977.5" y="754" class="messageText" style="text-anchor: middle;">Sign L10N Internals</text><line x1="880" y1="761" x2="1075" y2="761" class="messageLine0" stroke-width="2" stroke="black" marker-end="url(#arrowhead)" style="fill: none;"></line></g><g><rect x="1070" y="763" fill="#f4f4f4" stroke="#666" width="10" height="33" rx="0" ry="0"></rect></g><g><text x="772.5" y="789" class="messageText" style="text-anchor: middle;">Signed L10N Internals</text><line x1="1070" y1="796" x2="475" y2="796" class="messageLine1" stroke-width="2" stroke="black" marker-end="url(#arrowhead)" style="stroke-dasharray: 3, 3; fill: none;"></line></g><g><text x="575" y="824" class="messageText" style="text-anchor: middle;">Package L10N Builds</text><line x1="475" y1="831" x2="675" y2="831" class="messageLine0" stroke-width="2" stroke="black" marker-end="url(#arrowhead)" style="fill: none;"></line></g><g><rect x="670" y="833" fill="#f4f4f4" stroke="#666" width="10" height="77" rx="0" ry="0"></rect></g><g><rect x="450" y="841" fill="#EDF2AE" stroke="#666" width="250" height="34" rx="0" ry="0" class="note"></rect><text x="446" y="865" fill="black" class="noteText"><tspan x="466" fill="black">repackage-l10n</tspan></text></g><g><text x="572.5" y="903" class="messageText" style="text-anchor: middle;">Packaged L10N Builds</text><line x1="670" y1="910" x2="475" y2="910" class="messageLine1" stroke-width="2" stroke="black" marker-end="url(#arrowhead)" style="stroke-dasharray: 3, 3; fill: none;"></line></g><g><text x="675" y="938" class="messageText" style="text-anchor: middle;">Sign L10n Packages</text><line x1="475" y1="945" x2="875" y2="945" class="messageLine0" stroke-width="2" stroke="black" marker-end="url(#arrowhead)" style="fill: none;"></line></g><g><rect x="870" y="947" fill="#f4f4f4" stroke="#666" width="10" height="112" rx="0" ry="0"></rect></g><g><rect x="450" y="955" fill="#EDF2AE" stroke="#666" width="450" height="34" rx="0" ry="0" class="note"></rect><text x="446" y="979" fill="black" class="noteText"><tspan x="466" fill="black">repackage-signing-l10n</tspan></text></g><g><text x="977.5" y="1017" class="messageText" style="text-anchor: middle;">Sign L10n Packages</text><line x1="880" y1="1024" x2="1075" y2="1024" class="messageLine0" stroke-width="2" stroke="black" marker-end="url(#arrowhead)" style="fill: none;"></line></g><g><rect x="1070" y="1026" fill="#f4f4f4" stroke="#666" width="10" height="33" rx="0" ry="0"></rect></g><g><text x="772.5" y="1052" class="messageText" style="text-anchor: middle;">Signed L10N Packages</text><line x1="1070" y1="1059" x2="475" y2="1059" class="messageLine1" stroke-width="2" stroke="black" marker-end="url(#arrowhead)" style="stroke-dasharray: 3, 3; fill: none;"></line></g><g><text x="1275" y="1087" class="messageText" style="text-anchor: middle;">Sign and Push Langpacks</text><line x1="475" y1="1094" x2="2075" y2="1094" class="messageLine0" stroke-width="2" stroke="black" marker-end="url(#arrowhead)" style="fill: none;"></line></g><g><rect x="2070" y="1096" fill="#f4f4f4" stroke="#666" width="10" height="112" rx="0" ry="0"></rect></g><g><rect x="450" y="1104" fill="#EDF2AE" stroke="#666" width="1650" height="34" rx="0" ry="0" class="note"></rect><text x="446" y="1128" fill="black" class="noteText"><tspan x="466" fill="black">release-sign-and-push-langpacks</tspan></text></g><g><text x="2477.5" y="1166" class="messageText" style="text-anchor: middle;">Sign and Push Langpacks</text><line x1="2080" y1="1173" x2="2875" y2="1173" class="messageLine0" stroke-width="2" stroke="black" marker-end="url(#arrowhead)" style="fill: none;"></line></g><g><rect x="2870" y="1175" fill="#f4f4f4" stroke="#666" width="10" height="33" rx="0" ry="0"></rect></g><g><text x="1672.5" y="1201" class="messageText" style="text-anchor: middle;">Signed Langpacks</text><line x1="2870" y1="1208" x2="475" y2="1208" class="messageLine1" stroke-width="2" stroke="black" marker-end="url(#arrowhead)" style="stroke-dasharray: 3, 3; fill: none;"></line></g><g><text x="575" y="1236" class="messageText" style="text-anchor: middle;">Make Partner Repacks</text><line x1="475" y1="1243" x2="675" y2="1243" class="messageLine0" stroke-width="2" stroke="black" marker-end="url(#arrowhead)" style="fill: none;"></line></g><g><rect x="670" y="1245" fill="#f4f4f4" stroke="#666" width="10" height="77" rx="0" ry="0"></rect></g><g><rect x="450" y="1253" fill="#EDF2AE" stroke="#666" width="250" height="34" rx="0" ry="0" class="note"></rect><text x="446" y="1277" fill="black" class="noteText"><tspan x="466" fill="black">release-partner-repack</tspan></text></g><g><text x="572.5" y="1315" class="messageText" style="text-anchor: middle;">Partner Repacks</text><line x1="670" y1="1322" x2="475" y2="1322" class="messageLine1" stroke-width="2" stroke="black" marker-end="url(#arrowhead)" style="stroke-dasharray: 3, 3; fill: none;"></line></g><g><text x="675" y="1350" class="messageText" style="text-anchor: middle;">Sign Partner Internals</text><line x1="475" y1="1357" x2="875" y2="1357" class="messageLine0" stroke-width="2" stroke="black" marker-end="url(#arrowhead)" style="fill: none;"></line></g><g><rect x="870" y="1359" fill="#f4f4f4" stroke="#666" width="10" height="112" rx="0" ry="0"></rect></g><g><rect x="450" y="1367" fill="#EDF2AE" stroke="#666" width="450" height="34" rx="0" ry="0" class="note"></rect><text x="446" y="1391" fill="black" class="noteText"><tspan x="466" fill="black">release-partner-repack-signing</tspan></text></g><g><text x="977.5" y="1429" class="messageText" style="text-anchor: middle;">Sign Partner Internals</text><line x1="880" y1="1436" x2="1075" y2="1436" class="messageLine0" stroke-width="2" stroke="black" marker-end="url(#arrowhead)" style="fill: none;"></line></g><g><rect x="1070" y="1438" fill="#f4f4f4" stroke="#666" width="10" height="33" rx="0" ry="0"></rect></g><g><text x="975" y="1464" class="messageText" style="text-anchor: middle;">Signed Partner Internals</text><line x1="1070" y1="1471" x2="880" y2="1471" class="messageLine1" stroke-width="2" stroke="black" marker-end="url(#arrowhead)" style="stroke-dasharray: 3, 3; fill: none;"></line></g><g><text x="575" y="1499" class="messageText" style="text-anchor: middle;">Package Partner Builds</text><line x1="475" y1="1506" x2="675" y2="1506" class="messageLine0" stroke-width="2" stroke="black" marker-end="url(#arrowhead)" style="fill: none;"></line></g><g><rect x="670" y="1508" fill="#f4f4f4" stroke="#666" width="10" height="77" rx="0" ry="0"></rect></g><g><rect x="450" y="1516" fill="#EDF2AE" stroke="#666" width="250" height="34" rx="0" ry="0" class="note"></rect><text x="446" y="1540" fill="black" class="noteText"><tspan x="466" fill="black">release-partner-repack-repackage</tspan></text></g><g><text x="572.5" y="1578" class="messageText" style="text-anchor: middle;">Packaged Partner Builds</text><line x1="670" y1="1585" x2="475" y2="1585" class="messageLine1" stroke-width="2" stroke="black" marker-end="url(#arrowhead)" style="stroke-dasharray: 3, 3; fill: none;"></line></g><g><text x="675" y="1613" class="messageText" style="text-anchor: middle;">Sign Partner Packages</text><line x1="475" y1="1620" x2="875" y2="1620" class="messageLine0" stroke-width="2" stroke="black" marker-end="url(#arrowhead)" style="fill: none;"></line></g><g><rect x="870" y="1622" fill="#f4f4f4" stroke="#666" width="10" height="112" rx="0" ry="0"></rect></g><g><rect x="450" y="1630" fill="#EDF2AE" stroke="#666" width="250" height="34" rx="0" ry="0" class="note"></rect><text x="446" y="1654" fill="black" class="noteText"><tspan x="466" fill="black">release-partner-repack-repackage-signing</tspan></text></g><g><text x="977.5" y="1692" class="messageText" style="text-anchor: middle;">Sign Partner Packages</text><line x1="880" y1="1699" x2="1075" y2="1699" class="messageLine0" stroke-width="2" stroke="black" marker-end="url(#arrowhead)" style="fill: none;"></line></g><g><rect x="1070" y="1701" fill="#f4f4f4" stroke="#666" width="10" height="33" rx="0" ry="0"></rect></g><g><text x="772.5" y="1727" class="messageText" style="text-anchor: middle;">Signed Partner Packages</text><line x1="1070" y1="1734" x2="475" y2="1734" class="messageLine1" stroke-width="2" stroke="black" marker-end="url(#arrowhead)" style="stroke-dasharray: 3, 3; fill: none;"></line></g><g><text x="575" y="1762" class="messageText" style="text-anchor: middle;">Make Partial Updates</text><line x1="475" y1="1769" x2="675" y2="1769" class="messageLine0" stroke-width="2" stroke="black" marker-end="url(#arrowhead)" style="fill: none;"></line></g><g><rect x="670" y="1771" fill="#f4f4f4" stroke="#666" width="10" height="77" rx="0" ry="0"></rect></g><g><rect x="450" y="1779" fill="#EDF2AE" stroke="#666" width="250" height="34" rx="0" ry="0" class="note"></rect><text x="446" y="1803" fill="black" class="noteText"><tspan x="466" fill="black">partials</tspan></text></g><g><text x="572.5" y="1841" class="messageText" style="text-anchor: middle;">Partial Updates</text><line x1="670" y1="1848" x2="475" y2="1848" class="messageLine1" stroke-width="2" stroke="black" marker-end="url(#arrowhead)" style="stroke-dasharray: 3, 3; fill: none;"></line></g><g><text x="675" y="1876" class="messageText" style="text-anchor: middle;">Sign Partial Updates</text><line x1="475" y1="1883" x2="875" y2="1883" class="messageLine0" stroke-width="2" stroke="black" marker-end="url(#arrowhead)" style="fill: none;"></line></g><g><rect x="870" y="1885" fill="#f4f4f4" stroke="#666" width="10" height="112" rx="0" ry="0"></rect></g><g><rect x="450" y="1893" fill="#EDF2AE" stroke="#666" width="450" height="34" rx="0" ry="0" class="note"></rect><text x="446" y="1917" fill="black" class="noteText"><tspan x="466" fill="black">partials-signing</tspan></text></g><g><text x="977.5" y="1955" class="messageText" style="text-anchor: middle;">Sign Partial Updates</text><line x1="880" y1="1962" x2="1075" y2="1962" class="messageLine0" stroke-width="2" stroke="black" marker-end="url(#arrowhead)" style="fill: none;"></line></g><g><rect x="1070" y="1964" fill="#f4f4f4" stroke="#666" width="10" height="33" rx="0" ry="0"></rect></g><g><text x="772.5" y="1990" class="messageText" style="text-anchor: middle;">Signed Partial Updates</text><line x1="1070" y1="1997" x2="475" y2="1997" class="messageLine1" stroke-width="2" stroke="black" marker-end="url(#arrowhead)" style="stroke-dasharray: 3, 3; fill: none;"></line></g><g><text x="875" y="2025" class="messageText" style="text-anchor: middle;">Copy Bits to Candidates Dir</text><line x1="475" y1="2032" x2="1275" y2="2032" class="messageLine0" stroke-width="2" stroke="black" marker-end="url(#arrowhead)" style="fill: none;"></line></g><g><rect x="450" y="2042" fill="#EDF2AE" stroke="#666" width="850" height="34" rx="0" ry="0" class="note"></rect><text x="446" y="2066" fill="black" class="noteText"><tspan x="466" fill="black">beetmover, beetmover-l10n, beetmover-repackage, beetmover-source</tspan></text></g><g><rect x="1270" y="2078" fill="#f4f4f4" stroke="#666" width="10" height="33" rx="0" ry="0"></rect></g><g><text x="1777.5" y="2104" class="messageText" style="text-anchor: middle;">Copy Bits to Candidates Dir</text><line x1="1280" y1="2111" x2="2275" y2="2111" class="messageLine0" stroke-width="2" stroke="black" marker-end="url(#arrowhead)" style="fill: none;"></line></g><g><rect x="2270" y="2105" fill="#f4f4f4" stroke="#666" width="10" height="18" rx="0" ry="0"></rect></g><g><text x="675" y="2139" class="messageText" style="text-anchor: middle;">Sign Checksums</text><line x1="475" y1="2146" x2="875" y2="2146" class="messageLine0" stroke-width="2" stroke="black" marker-end="url(#arrowhead)" style="fill: none;"></line></g><g><rect x="870" y="2148" fill="#f4f4f4" stroke="#666" width="10" height="112" rx="0" ry="0"></rect></g><g><rect x="450" y="2156" fill="#EDF2AE" stroke="#666" width="450" height="34" rx="0" ry="0" class="note"></rect><text x="446" y="2180" fill="black" class="noteText"><tspan x="466" fill="black">release-generate-checksums-signing</tspan></text></g><g><text x="977.5" y="2218" class="messageText" style="text-anchor: middle;">Sign Checksums</text><line x1="880" y1="2225" x2="1075" y2="2225" class="messageLine0" stroke-width="2" stroke="black" marker-end="url(#arrowhead)" style="fill: none;"></line></g><g><rect x="1070" y="2227" fill="#f4f4f4" stroke="#666" width="10" height="33" rx="0" ry="0"></rect></g><g><text x="772.5" y="2253" class="messageText" style="text-anchor: middle;">Signed Checksums</text><line x1="1070" y1="2260" x2="475" y2="2260" class="messageLine1" stroke-width="2" stroke="black" marker-end="url(#arrowhead)" style="stroke-dasharray: 3, 3; fill: none;"></line></g><g><text x="875" y="2288" class="messageText" style="text-anchor: middle;">Copy Checksums to Candidates Dir</text><line x1="475" y1="2295" x2="1275" y2="2295" class="messageLine0" stroke-width="2" stroke="black" marker-end="url(#arrowhead)" style="fill: none;"></line></g><g><rect x="1270" y="2297" fill="#f4f4f4" stroke="#666" width="10" height="77" rx="0" ry="0"></rect></g><g><rect x="450" y="2305" fill="#EDF2AE" stroke="#666" width="850" height="34" rx="0" ry="0" class="note"></rect><text x="446" y="2329" fill="black" class="noteText"><tspan x="466" fill="black">release-generate-checksums-beetmover</tspan></text></g><g><text x="1777.5" y="2367" class="messageText" style="text-anchor: middle;">Copy Checksums to Candidates Dir</text><line x1="1280" y1="2374" x2="2275" y2="2374" class="messageLine0" stroke-width="2" stroke="black" marker-end="url(#arrowhead)" style="fill: none;"></line></g><g><rect x="2270" y="2368" fill="#f4f4f4" stroke="#666" width="10" height="18" rx="0" ry="0"></rect></g><g><text x="1075" y="2402" class="messageText" style="text-anchor: middle;">Submit to Bouncer</text><line x1="475" y1="2409" x2="1675" y2="2409" class="messageLine0" stroke-width="2" stroke="black" marker-end="url(#arrowhead)" style="fill: none;"></line></g><g><rect x="1670" y="2411" fill="#f4f4f4" stroke="#666" width="10" height="77" rx="0" ry="0"></rect></g><g><rect x="450" y="2419" fill="#EDF2AE" stroke="#666" width="1250" height="34" rx="0" ry="0" class="note"></rect><text x="446" y="2443" fill="black" class="noteText"><tspan x="466" fill="black">release-bouncer-sub</tspan></text></g><g><text x="2177.5" y="2481" class="messageText" style="text-anchor: middle;">Submit to Bouncer</text><line x1="1680" y1="2488" x2="2675" y2="2488" class="messageLine0" stroke-width="2" stroke="black" marker-end="url(#arrowhead)" style="fill: none;"></line></g><g><rect x="2670" y="2482" fill="#f4f4f4" stroke="#666" width="10" height="18" rx="0" ry="0"></rect></g><g><text x="975" y="2516" class="messageText" style="text-anchor: middle;">Submit to Balrog</text><line x1="475" y1="2523" x2="1475" y2="2523" class="messageLine0" stroke-width="2" stroke="black" marker-end="url(#arrowhead)" style="fill: none;"></line></g><g><rect x="1470" y="2525" fill="#f4f4f4" stroke="#666" width="10" height="77" rx="0" ry="0"></rect></g><g><rect x="450" y="2533" fill="#EDF2AE" stroke="#666" width="1050" height="34" rx="0" ry="0" class="note"></rect><text x="446" y="2557" fill="black" class="noteText"><tspan x="466" fill="black">balrog, release-balrog-submit-toplevel</tspan></text></g><g><text x="1977.5" y="2595" class="messageText" style="text-anchor: middle;">Submit to Balrog</text><line x1="1480" y1="2602" x2="2475" y2="2602" class="messageLine0" stroke-width="2" stroke="black" marker-end="url(#arrowhead)" style="fill: none;"></line></g><g><rect x="2470" y="2596" fill="#f4f4f4" stroke="#666" width="10" height="18" rx="0" ry="0"></rect></g><g><text x="575" y="2630" class="messageText" style="text-anchor: middle;">Generate Update Verify Configs</text><line x1="475" y1="2637" x2="675" y2="2637" class="messageLine0" stroke-width="2" stroke="black" marker-end="url(#arrowhead)" style="fill: none;"></line></g><g><rect x="670" y="2639" fill="#f4f4f4" stroke="#666" width="10" height="77" rx="0" ry="0"></rect></g><g><rect x="450" y="2647" fill="#EDF2AE" stroke="#666" width="250" height="34" rx="0" ry="0" class="note"></rect><text x="446" y="2671" fill="black" class="noteText"><tspan x="466" fill="black">release-update-verify-config</tspan></text></g><g><text x="572.5" y="2709" class="messageText" style="text-anchor: middle;">Update Verify Configs</text><line x1="670" y1="2716" x2="475" y2="2716" class="messageLine1" stroke-width="2" stroke="black" marker-end="url(#arrowhead)" style="stroke-dasharray: 3, 3; fill: none;"></line></g><g><text x="575" y="2744" class="messageText" style="text-anchor: middle;">Verify Updates</text><line x1="475" y1="2751" x2="675" y2="2751" class="messageLine0" stroke-width="2" stroke="black" marker-end="url(#arrowhead)" style="fill: none;"></line></g><g><rect x="450" y="2761" fill="#EDF2AE" stroke="#666" width="250" height="34" rx="0" ry="0" class="note"></rect><text x="446" y="2785" fill="black" class="noteText"><tspan x="466" fill="black">release-update-verify</tspan></text></g><g><rect x="0" y="2815" fill="#eaeaea" stroke="#666" width="150" height="65" rx="3" ry="3" class="actor"></rect><text x="75" y="2847.5" dominant-baseline="central" alignment-baseline="central" class="actor" style="text-anchor: middle;"><tspan x="75" dy="0">Release Manager</tspan></text></g><g><rect x="200" y="2815" fill="#eaeaea" stroke="#666" width="150" height="65" rx="3" ry="3" class="actor"></rect><text x="275" y="2847.5" dominant-baseline="central" alignment-baseline="central" class="actor" style="text-anchor: middle;"><tspan x="275" dy="0">Ship It</tspan></text></g><g><rect x="400" y="2815" fill="#eaeaea" stroke="#666" width="150" height="65" rx="3" ry="3" class="actor"></rect><text x="475" y="2847.5" dominant-baseline="central" alignment-baseline="central" class="actor" style="text-anchor: middle;"><tspan x="475" dy="0">Taskcluster</tspan></text></g><g><rect x="600" y="2815" fill="#eaeaea" stroke="#666" width="150" height="65" rx="3" ry="3" class="actor"></rect><text x="675" y="2847.5" dominant-baseline="central" alignment-baseline="central" class="actor" style="text-anchor: middle;"><tspan x="675" dy="0">Release Workers</tspan></text></g><g><rect x="800" y="2815" fill="#eaeaea" stroke="#666" width="150" height="65" rx="3" ry="3" class="actor"></rect><text x="875" y="2847.5" dominant-baseline="central" alignment-baseline="central" class="actor" style="text-anchor: middle;"><tspan x="875" dy="0">Signing Workers</tspan></text></g><g><rect x="1000" y="2815" fill="#eaeaea" stroke="#666" width="150" height="65" rx="3" ry="3" class="actor"></rect><text x="1075" y="2847.5" dominant-baseline="central" alignment-baseline="central" class="actor" style="text-anchor: middle;"><tspan x="1075" dy="0">Signing Servers</tspan></text></g><g><rect x="1200" y="2815" fill="#eaeaea" stroke="#666" width="150" height="65" rx="3" ry="3" class="actor"></rect><text x="1275" y="2847.5" dominant-baseline="central" alignment-baseline="central" class="actor" style="text-anchor: middle;"><tspan x="1275" dy="0">Beetmover Workers</tspan></text></g><g><rect x="1400" y="2815" fill="#eaeaea" stroke="#666" width="150" height="65" rx="3" ry="3" class="actor"></rect><text x="1475" y="2847.5" dominant-baseline="central" alignment-baseline="central" class="actor" style="text-anchor: middle;"><tspan x="1475" dy="0">Balrog Workers</tspan></text></g><g><rect x="1600" y="2815" fill="#eaeaea" stroke="#666" width="150" height="65" rx="3" ry="3" class="actor"></rect><text x="1675" y="2847.5" dominant-baseline="central" alignment-baseline="central" class="actor" style="text-anchor: middle;"><tspan x="1675" dy="0">Bouncer Workers</tspan></text></g><g><rect x="1800" y="2815" fill="#eaeaea" stroke="#666" width="150" height="65" rx="3" ry="3" class="actor"></rect><text x="1875" y="2847.5" dominant-baseline="central" alignment-baseline="central" class="actor" style="text-anchor: middle;"><tspan x="1875" dy="0">Shipit Workers</tspan></text></g><g><rect x="2000" y="2815" fill="#eaeaea" stroke="#666" width="150" height="65" rx="3" ry="3" class="actor"></rect><text x="2075" y="2847.5" dominant-baseline="central" alignment-baseline="central" class="actor" style="text-anchor: middle;"><tspan x="2075" dy="0">Addon Workers</tspan></text></g><g><rect x="2200" y="2815" fill="#eaeaea" stroke="#666" width="150" height="65" rx="3" ry="3" class="actor"></rect><text x="2275" y="2847.5" dominant-baseline="central" alignment-baseline="central" class="actor" style="text-anchor: middle;"><tspan x="2275" dy="0">S3</tspan></text></g><g><rect x="2400" y="2815" fill="#eaeaea" stroke="#666" width="150" height="65" rx="3" ry="3" class="actor"></rect><text x="2475" y="2847.5" dominant-baseline="central" alignment-baseline="central" class="actor" style="text-anchor: middle;"><tspan x="2475" dy="0">Balrog</tspan></text></g><g><rect x="2600" y="2815" fill="#eaeaea" stroke="#666" width="150" height="65" rx="3" ry="3" class="actor"></rect><text x="2675" y="2847.5" dominant-baseline="central" alignment-baseline="central" class="actor" style="text-anchor: middle;"><tspan x="2675" dy="0">Bouncer</tspan></text></g><g><rect x="2800" y="2815" fill="#eaeaea" stroke="#666" width="150" height="65" rx="3" ry="3" class="actor"></rect><text x="2875" y="2847.5" dominant-baseline="central" alignment-baseline="central" class="actor" style="text-anchor: middle;"><tspan x="2875" dy="0">AMO</tspan></text></g></svg>