<svg id="mermaid-1532962820113" width="100%" xmlns="http://www.w3.org/2000/svg" height="100%" style="max-width:4050px;" viewBox="-50 -10 4050 3678"><style>#mermaid-1532962820113 .label{font-family:trebuchet ms,verdana,arial;color:#333}#mermaid-1532962820113 .node circle,#mermaid-1532962820113 .node ellipse,#mermaid-1532962820113 .node polygon,#mermaid-1532962820113 .node rect{fill:#ececff;stroke:#9370db;stroke-width:1px}#mermaid-1532962820113 .node.clickable{cursor:pointer}#mermaid-1532962820113 .arrowheadPath{fill:#333}#mermaid-1532962820113 .edgePath .path{stroke:#333;stroke-width:1.5px}#mermaid-1532962820113 .edgeLabel{background-color:#e8e8e8}#mermaid-1532962820113 .cluster rect{fill:#ffffde!important;stroke:#aa3!important;stroke-width:1px!important}#mermaid-1532962820113 .cluster text{fill:#333}#mermaid-1532962820113 div.mermaidTooltip{position:absolute;text-align:center;max-width:200px;padding:2px;font-family:trebuchet ms,verdana,arial;font-size:12px;background:#ffffde;border:1px solid #aa3;border-radius:2px;pointer-events:none;z-index:100}#mermaid-1532962820113 .actor{stroke:#ccf;fill:#ececff}#mermaid-1532962820113 text.actor{fill:#000;stroke:none}#mermaid-1532962820113 .actor-line{stroke:grey}#mermaid-1532962820113 .messageLine0{marker-end:"url(#arrowhead)"}#mermaid-1532962820113 .messageLine0,#mermaid-1532962820113 .messageLine1{stroke-width:1.5;stroke-dasharray:"2 2";stroke:#333}#mermaid-1532962820113 #arrowhead{fill:#333}#mermaid-1532962820113 #crosshead path{fill:#333!important;stroke:#333!important}#mermaid-1532962820113 .messageText{fill:#333;stroke:none}#mermaid-1532962820113 .labelBox{stroke:#ccf;fill:#ececff}#mermaid-1532962820113 .labelText,#mermaid-1532962820113 .loopText{fill:#000;stroke:none}#mermaid-1532962820113 .loopLine{stroke-width:2;stroke-dasharray:"2 2";marker-end:"url(#arrowhead)";stroke:#ccf}#mermaid-1532962820113 .note{stroke:#aa3;fill:#fff5ad}#mermaid-1532962820113 .noteText{fill:#000;stroke:none;font-family:trebuchet ms,verdana,arial;font-size:14px}#mermaid-1532962820113 .section{stroke:none;opacity:.2}#mermaid-1532962820113 .section0{fill:rgba(102,102,255,.49)}#mermaid-1532962820113 .section2{fill:#fff400}#mermaid-1532962820113 .section1,#mermaid-1532962820113 .section3{fill:#fff;opacity:.2}#mermaid-1532962820113 .sectionTitle0,#mermaid-1532962820113 .sectionTitle1,#mermaid-1532962820113 .sectionTitle2,#mermaid-1532962820113 .sectionTitle3{fill:#333}#mermaid-1532962820113 .sectionTitle{text-anchor:start;font-size:11px;text-height:14px}#mermaid-1532962820113 .grid .tick{stroke:#d3d3d3;opacity:.3;shape-rendering:crispEdges}#mermaid-1532962820113 .grid path{stroke-width:0}#mermaid-1532962820113 .today{fill:none;stroke:red;stroke-width:2px}#mermaid-1532962820113 .task{stroke-width:2}#mermaid-1532962820113 .taskText{text-anchor:middle;font-size:11px}#mermaid-1532962820113 .taskTextOutsideRight{fill:#000;text-anchor:start;font-size:11px}#mermaid-1532962820113 .taskTextOutsideLeft{fill:#000;text-anchor:end;font-size:11px}#mermaid-1532962820113 .taskText0,#mermaid-1532962820113 .taskText1,#mermaid-1532962820113 .taskText2,#mermaid-1532962820113 .taskText3{fill:#fff}#mermaid-1532962820113 .task0,#mermaid-1532962820113 .task1,#mermaid-1532962820113 .task2,#mermaid-1532962820113 .task3{fill:#8a90dd;stroke:#534fbc}#mermaid-1532962820113 .taskTextOutside0,#mermaid-1532962820113 .taskTextOutside1,#mermaid-1532962820113 .taskTextOutside2,#mermaid-1532962820113 .taskTextOutside3{fill:#000}#mermaid-1532962820113 .active0,#mermaid-1532962820113 .active1,#mermaid-1532962820113 .active2,#mermaid-1532962820113 .active3{fill:#bfc7ff;stroke:#534fbc}#mermaid-1532962820113 .activeText0,#mermaid-1532962820113 .activeText1,#mermaid-1532962820113 .activeText2,#mermaid-1532962820113 .activeText3{fill:#000!important}#mermaid-1532962820113 .done0,#mermaid-1532962820113 .done1,#mermaid-1532962820113 .done2,#mermaid-1532962820113 .done3{stroke:grey;fill:#d3d3d3;stroke-width:2}#mermaid-1532962820113 .doneText0,#mermaid-1532962820113 .doneText1,#mermaid-1532962820113 .doneText2,#mermaid-1532962820113 .doneText3{fill:#000!important}#mermaid-1532962820113 .crit0,#mermaid-1532962820113 .crit1,#mermaid-1532962820113 .crit2,#mermaid-1532962820113 .crit3{stroke:#f88;fill:red;stroke-width:2}#mermaid-1532962820113 .activeCrit0,#mermaid-1532962820113 .activeCrit1,#mermaid-1532962820113 .activeCrit2,#mermaid-1532962820113 .activeCrit3{stroke:#f88;fill:#bfc7ff;stroke-width:2}#mermaid-1532962820113 .doneCrit0,#mermaid-1532962820113 .doneCrit1,#mermaid-1532962820113 .doneCrit2,#mermaid-1532962820113 .doneCrit3{stroke:#f88;fill:#d3d3d3;stroke-width:2;cursor:pointer;shape-rendering:crispEdges}#mermaid-1532962820113 .activeCritText0,#mermaid-1532962820113 .activeCritText1,#mermaid-1532962820113 .activeCritText2,#mermaid-1532962820113 .activeCritText3,#mermaid-1532962820113 .doneCritText0,#mermaid-1532962820113 .doneCritText1,#mermaid-1532962820113 .doneCritText2,#mermaid-1532962820113 .doneCritText3{fill:#000!important}#mermaid-1532962820113 .titleText{text-anchor:middle;font-size:18px;fill:#000}#mermaid-1532962820113 g.classGroup text{fill:#9370db;stroke:none;font-family:trebuchet ms,verdana,arial;font-size:10px}#mermaid-1532962820113 g.classGroup rect{fill:#ececff;stroke:#9370db}#mermaid-1532962820113 g.classGroup line{stroke:#9370db;stroke-width:1}#mermaid-1532962820113 .classLabel .box{stroke:none;stroke-width:0;fill:#ececff;opacity:.5}#mermaid-1532962820113 .classLabel .label{fill:#9370db;font-size:10px}#mermaid-1532962820113 .relation{stroke:#9370db;stroke-width:1;fill:none}#mermaid-1532962820113 #compositionEnd,#mermaid-1532962820113 #compositionStart{fill:#9370db;stroke:#9370db;stroke-width:1}#mermaid-1532962820113 #aggregationEnd,#mermaid-1532962820113 #aggregationStart{fill:#ececff;stroke:#9370db;stroke-width:1}#mermaid-1532962820113 #dependencyEnd,#mermaid-1532962820113 #dependencyStart,#mermaid-1532962820113 #extensionEnd,#mermaid-1532962820113 #extensionStart{fill:#9370db;stroke:#9370db;stroke-width:1}#mermaid-1532962820113 .branch-label,#mermaid-1532962820113 .commit-id,#mermaid-1532962820113 .commit-msg{fill:#d3d3d3;color:#d3d3d3}</style><style>#mermaid-1532962820113 {
    color: rgb(0, 0, 0);
    font: normal normal 400 normal 16px / normal "Times New Roman";
  }</style><g></g><g><line id="actor0" x1="75" y1="5" x2="75" y2="3667" class="actor-line" stroke-width="0.5px" stroke="#999"></line><rect x="0" y="0" fill="#eaeaea" stroke="#666" width="150" height="65" rx="3" ry="3" class="actor"></rect><text x="75" y="32.5" dominant-baseline="central" alignment-baseline="central" class="actor" style="text-anchor: middle;"><tspan x="75" dy="0">Release Engineer</tspan></text></g><g><line id="actor1" x1="275" y1="5" x2="275" y2="3667" class="actor-line" stroke-width="0.5px" stroke="#999"></line><rect x="200" y="0" fill="#eaeaea" stroke="#666" width="150" height="65" rx="3" ry="3" class="actor"></rect><text x="275" y="32.5" dominant-baseline="central" alignment-baseline="central" class="actor" style="text-anchor: middle;"><tspan x="275" dy="0">QA Engineer</tspan></text></g><g><line id="actor2" x1="475" y1="5" x2="475" y2="3667" class="actor-line" stroke-width="0.5px" stroke="#999"></line><rect x="400" y="0" fill="#eaeaea" stroke="#666" width="150" height="65" rx="3" ry="3" class="actor"></rect><text x="475" y="32.5" dominant-baseline="central" alignment-baseline="central" class="actor" style="text-anchor: middle;"><tspan x="475" dy="0">Release Manager</tspan></text></g><g><line id="actor3" x1="675" y1="5" x2="675" y2="3667" class="actor-line" stroke-width="0.5px" stroke="#999"></line><rect x="600" y="0" fill="#eaeaea" stroke="#666" width="150" height="65" rx="3" ry="3" class="actor"></rect><text x="675" y="32.5" dominant-baseline="central" alignment-baseline="central" class="actor" style="text-anchor: middle;"><tspan x="675" dy="0">buildbot-master81</tspan></text></g><g><line id="actor4" x1="875" y1="5" x2="875" y2="3667" class="actor-line" stroke-width="0.5px" stroke="#999"></line><rect x="800" y="0" fill="#eaeaea" stroke="#666" width="150" height="65" rx="3" ry="3" class="actor"></rect><text x="875" y="32.5" dominant-baseline="central" alignment-baseline="central" class="actor" style="text-anchor: middle;"><tspan x="875" dy="0">Ship It</tspan></text></g><g><line id="actor5" x1="1075" y1="5" x2="1075" y2="3667" class="actor-line" stroke-width="0.5px" stroke="#999"></line><rect x="1000" y="0" fill="#eaeaea" stroke="#666" width="150" height="65" rx="3" ry="3" class="actor"></rect><text x="1075" y="32.5" dominant-baseline="central" alignment-baseline="central" class="actor" style="text-anchor: middle;"><tspan x="1075" dy="0">hg.mozilla.org</tspan></text></g><g><line id="actor6" x1="1275" y1="5" x2="1275" y2="3667" class="actor-line" stroke-width="0.5px" stroke="#999"></line><rect x="1200" y="0" fill="#eaeaea" stroke="#666" width="150" height="65" rx="3" ry="3" class="actor"></rect><text x="1275" y="32.5" dominant-baseline="central" alignment-baseline="central" class="actor" style="text-anchor: middle;"><tspan x="1275" dy="0">Taskcluster</tspan></text></g><g><line id="actor7" x1="1475" y1="5" x2="1475" y2="3667" class="actor-line" stroke-width="0.5px" stroke="#999"></line><rect x="1400" y="0" fill="#eaeaea" stroke="#666" width="150" height="65" rx="3" ry="3" class="actor"></rect><text x="1475" y="32.5" dominant-baseline="central" alignment-baseline="central" class="actor" style="text-anchor: middle;"><tspan x="1475" dy="0">Release Workers</tspan></text></g><g><line id="actor8" x1="1675" y1="5" x2="1675" y2="3667" class="actor-line" stroke-width="0.5px" stroke="#999"></line><rect x="1600" y="0" fill="#eaeaea" stroke="#666" width="150" height="65" rx="3" ry="3" class="actor"></rect><text x="1675" y="32.5" dominant-baseline="central" alignment-baseline="central" class="actor" style="text-anchor: middle;"><tspan x="1675" dy="0">Funsize</tspan></text></g><g><line id="actor9" x1="1875" y1="5" x2="1875" y2="3667" class="actor-line" stroke-width="0.5px" stroke="#999"></line><rect x="1800" y="0" fill="#eaeaea" stroke="#666" width="150" height="65" rx="3" ry="3" class="actor"></rect><text x="1875" y="32.5" dominant-baseline="central" alignment-baseline="central" class="actor" style="text-anchor: middle;"><tspan x="1875" dy="0">Signing Workers</tspan></text></g><g><line id="actor10" x1="2075" y1="5" x2="2075" y2="3667" class="actor-line" stroke-width="0.5px" stroke="#999"></line><rect x="2000" y="0" fill="#eaeaea" stroke="#666" width="150" height="65" rx="3" ry="3" class="actor"></rect><text x="2075" y="32.5" dominant-baseline="central" alignment-baseline="central" class="actor" style="text-anchor: middle;"><tspan x="2075" dy="0">Signing Servers</tspan></text></g><g><line id="actor11" x1="2275" y1="5" x2="2275" y2="3667" class="actor-line" stroke-width="0.5px" stroke="#999"></line><rect x="2200" y="0" fill="#eaeaea" stroke="#666" width="150" height="65" rx="3" ry="3" class="actor"></rect><text x="2275" y="32.5" dominant-baseline="central" alignment-baseline="central" class="actor" style="text-anchor: middle;"><tspan x="2275" dy="0">Beetmover Workers</tspan></text></g><g><line id="actor12" x1="2475" y1="5" x2="2475" y2="3667" class="actor-line" stroke-width="0.5px" stroke="#999"></line><rect x="2400" y="0" fill="#eaeaea" stroke="#666" width="150" height="65" rx="3" ry="3" class="actor"></rect><text x="2475" y="32.5" dominant-baseline="central" alignment-baseline="central" class="actor" style="text-anchor: middle;"><tspan x="2475" dy="0">Balrog Workers</tspan></text></g><g><line id="actor13" x1="2675" y1="5" x2="2675" y2="3667" class="actor-line" stroke-width="0.5px" stroke="#999"></line><rect x="2600" y="0" fill="#eaeaea" stroke="#666" width="150" height="65" rx="3" ry="3" class="actor"></rect><text x="2675" y="32.5" dominant-baseline="central" alignment-baseline="central" class="actor" style="text-anchor: middle;"><tspan x="2675" dy="0">Bouncer Workers</tspan></text></g><g><line id="actor14" x1="2875" y1="5" x2="2875" y2="3667" class="actor-line" stroke-width="0.5px" stroke="#999"></line><rect x="2800" y="0" fill="#eaeaea" stroke="#666" width="150" height="65" rx="3" ry="3" class="actor"></rect><text x="2875" y="32.5" dominant-baseline="central" alignment-baseline="central" class="actor" style="text-anchor: middle;"><tspan x="2875" dy="0">Shipit Worker</tspan></text></g><g><line id="actor15" x1="3075" y1="5" x2="3075" y2="3667" class="actor-line" stroke-width="0.5px" stroke="#999"></line><rect x="3000" y="0" fill="#eaeaea" stroke="#666" width="150" height="65" rx="3" ry="3" class="actor"></rect><text x="3075" y="32.5" dominant-baseline="central" alignment-baseline="central" class="actor" style="text-anchor: middle;"><tspan x="3075" dy="0">S3</tspan></text></g><g><line id="actor16" x1="3275" y1="5" x2="3275" y2="3667" class="actor-line" stroke-width="0.5px" stroke="#999"></line><rect x="3200" y="0" fill="#eaeaea" stroke="#666" width="150" height="65" rx="3" ry="3" class="actor"></rect><text x="3275" y="32.5" dominant-baseline="central" alignment-baseline="central" class="actor" style="text-anchor: middle;"><tspan x="3275" dy="0">Balrog</tspan></text></g><g><line id="actor17" x1="3475" y1="5" x2="3475" y2="3667" class="actor-line" stroke-width="0.5px" stroke="#999"></line><rect x="3400" y="0" fill="#eaeaea" stroke="#666" width="150" height="65" rx="3" ry="3" class="actor"></rect><text x="3475" y="32.5" dominant-baseline="central" alignment-baseline="central" class="actor" style="text-anchor: middle;"><tspan x="3475" dy="0">Bouncer</tspan></text></g><g><line id="actor18" x1="3675" y1="5" x2="3675" y2="3667" class="actor-line" stroke-width="0.5px" stroke="#999"></line><rect x="3600" y="0" fill="#eaeaea" stroke="#666" width="150" height="65" rx="3" ry="3" class="actor"></rect><text x="3675" y="32.5" dominant-baseline="central" alignment-baseline="central" class="actor" style="text-anchor: middle;"><tspan x="3675" dy="0">AMO</tspan></text></g><g><line id="actor19" x1="3875" y1="5" x2="3875" y2="3667" class="actor-line" stroke-width="0.5px" stroke="#999"></line><rect x="3800" y="0" fill="#eaeaea" stroke="#666" width="150" height="65" rx="3" ry="3" class="actor"></rect><text x="3875" y="32.5" dominant-baseline="central" alignment-baseline="central" class="actor" style="text-anchor: middle;"><tspan x="3875" dy="0">S3</tspan></text></g><defs><marker id="arrowhead" refX="5" refY="2" markerWidth="6" markerHeight="4" orient="auto"><path d="M 0,0 V 4 L6,2 Z"></path></marker></defs><defs><marker id="crosshead" markerWidth="15" markerHeight="8" orient="auto" refX="16" refY="4"><path fill="black" stroke="#000000" stroke-width="1px" d="M 9,2 V 6 L16,4 Z" style="stroke-dasharray: 0, 0;"></path><path fill="none" stroke="#000000" stroke-width="1px" d="M 0,1 L 6,7 M 6,1 L 0,7" style="stroke-dasharray: 0, 0;"></path></marker></defs><g><text x="1175" y="93" class="messageText" style="text-anchor: middle;">Create CI Decision Task</text><line x1="1075" y1="100" x2="1275" y2="100" class="messageLine0" stroke-width="2" stroke="black" marker-end="url(#arrowhead)" style="fill: none;"></line></g><g><text x="1275" y="128" class="messageText" style="text-anchor: middle;">Create CI Graph</text><path d="M 1275,135 C 1335,125 1335,165 1275,155" class="messageLine0" stroke-width="2" stroke="black" marker-end="url(#arrowhead)" style="fill: none;"></path></g><g><rect x="1300" y="175" fill="#EDF2AE" stroke="#666" width="150" height="34" rx="0" ry="0" class="note"></rect><text x="1296" y="199" fill="black" class="noteText"><tspan x="1316" fill="black">Start CI Phase</tspan></text></g><g><text x="1375" y="237" class="messageText" style="text-anchor: middle;">Make Builds</text><line x1="1275" y1="244" x2="1475" y2="244" class="messageLine0" stroke-width="2" stroke="black" marker-end="url(#arrowhead)" style="fill: none;"></line></g><g><rect x="1470" y="246" fill="#f4f4f4" stroke="#666" width="10" height="33" rx="0" ry="0"></rect></g><g><text x="1372.5" y="272" class="messageText" style="text-anchor: middle;">Builds</text><line x1="1470" y1="279" x2="1275" y2="279" class="messageLine1" stroke-width="2" stroke="black" marker-end="url(#arrowhead)" style="stroke-dasharray: 3, 3; fill: none;"></line></g><g><text x="1575" y="307" class="messageText" style="text-anchor: middle;">Sign Internals</text><line x1="1275" y1="314" x2="1875" y2="314" class="messageLine0" stroke-width="2" stroke="black" marker-end="url(#arrowhead)" style="fill: none;"></line></g><g><rect x="1870" y="316" fill="#f4f4f4" stroke="#666" width="10" height="68" rx="0" ry="0"></rect></g><g><text x="1977.5" y="342" class="messageText" style="text-anchor: middle;">Sign Internals</text><line x1="1880" y1="349" x2="2075" y2="349" class="messageLine0" stroke-width="2" stroke="black" marker-end="url(#arrowhead)" style="fill: none;"></line></g><g><rect x="2070" y="351" fill="#f4f4f4" stroke="#666" width="10" height="33" rx="0" ry="0"></rect></g><g><text x="1672.5" y="377" class="messageText" style="text-anchor: middle;">Signed Internals</text><line x1="2070" y1="384" x2="1275" y2="384" class="messageLine1" stroke-width="2" stroke="black" marker-end="url(#arrowhead)" style="stroke-dasharray: 3, 3; fill: none;"></line></g><g><text x="1375" y="412" class="messageText" style="text-anchor: middle;">Package Builds</text><line x1="1275" y1="419" x2="1475" y2="419" class="messageLine0" stroke-width="2" stroke="black" marker-end="url(#arrowhead)" style="fill: none;"></line></g><g><rect x="1470" y="421" fill="#f4f4f4" stroke="#666" width="10" height="33" rx="0" ry="0"></rect></g><g><text x="1372.5" y="447" class="messageText" style="text-anchor: middle;">Packaged Builds</text><line x1="1470" y1="454" x2="1275" y2="454" class="messageLine1" stroke-width="2" stroke="black" marker-end="url(#arrowhead)" style="stroke-dasharray: 3, 3; fill: none;"></line></g><g><text x="1575" y="482" class="messageText" style="text-anchor: middle;">Sign Packages</text><line x1="1275" y1="489" x2="1875" y2="489" class="messageLine0" stroke-width="2" stroke="black" marker-end="url(#arrowhead)" style="fill: none;"></line></g><g><rect x="1870" y="491" fill="#f4f4f4" stroke="#666" width="10" height="68" rx="0" ry="0"></rect></g><g><text x="1977.5" y="517" class="messageText" style="text-anchor: middle;">Sign Packages</text><line x1="1880" y1="524" x2="2075" y2="524" class="messageLine0" stroke-width="2" stroke="black" marker-end="url(#arrowhead)" style="fill: none;"></line></g><g><rect x="2070" y="526" fill="#f4f4f4" stroke="#666" width="10" height="33" rx="0" ry="0"></rect></g><g><text x="1672.5" y="552" class="messageText" style="text-anchor: middle;">Signed Packages</text><line x1="2070" y1="559" x2="1275" y2="559" class="messageLine1" stroke-width="2" stroke="black" marker-end="url(#arrowhead)" style="stroke-dasharray: 3, 3; fill: none;"></line></g><g><rect x="1300" y="569" fill="#EDF2AE" stroke="#666" width="150" height="34" rx="0" ry="0" class="note"></rect><text x="1296" y="593" fill="black" class="noteText"><tspan x="1316" fill="black">End CI Phase</tspan></text></g><g><text x="675" y="631" class="messageText" style="text-anchor: middle;">Submit Release</text><line x1="475" y1="638" x2="875" y2="638" class="messageLine0" stroke-width="2" stroke="black" marker-end="url(#arrowhead)" style="fill: none;"></line></g><g><text x="1075" y="666" class="messageText" style="text-anchor: middle;">Create Decision Task</text><line x1="875" y1="673" x2="1275" y2="673" class="messageLine0" stroke-width="2" stroke="black" marker-end="url(#arrowhead)" style="fill: none;"></line></g><g><text x="1275" y="701" class="messageText" style="text-anchor: middle;">Create Promote Graph</text><path d="M 1275,708 C 1335,698 1335,738 1275,728" class="messageLine0" stroke-width="2" stroke="black" marker-end="url(#arrowhead)" style="fill: none;"></path></g><g><rect x="1300" y="748" fill="#EDF2AE" stroke="#666" width="150" height="34" rx="0" ry="0" class="note"></rect><text x="1296" y="772" fill="black" class="noteText"><tspan x="1316" fill="black">Start Promote Phase</tspan></text></g><g><text x="2075" y="810" class="messageText" style="text-anchor: middle;">Mark as Started</text><line x1="1275" y1="817" x2="2875" y2="817" class="messageLine0" stroke-width="2" stroke="black" marker-end="url(#arrowhead)" style="fill: none;"></line></g><g><text x="1875" y="845" class="messageText" style="text-anchor: middle;">Mark as Started</text><line x1="2875" y1="852" x2="875" y2="852" class="messageLine0" stroke-width="2" stroke="black" marker-end="url(#arrowhead)" style="fill: none;"></line></g><g><text x="1375" y="880" class="messageText" style="text-anchor: middle;">Make Source Package</text><line x1="1275" y1="887" x2="1475" y2="887" class="messageLine0" stroke-width="2" stroke="black" marker-end="url(#arrowhead)" style="fill: none;"></line></g><g><rect x="1470" y="889" fill="#f4f4f4" stroke="#666" width="10" height="33" rx="0" ry="0"></rect></g><g><text x="1372.5" y="915" class="messageText" style="text-anchor: middle;">Source Package</text><line x1="1470" y1="922" x2="1275" y2="922" class="messageLine1" stroke-width="2" stroke="black" marker-end="url(#arrowhead)" style="stroke-dasharray: 3, 3; fill: none;"></line></g><g><text x="1575" y="950" class="messageText" style="text-anchor: middle;">Sign Source Package</text><line x1="1275" y1="957" x2="1875" y2="957" class="messageLine0" stroke-width="2" stroke="black" marker-end="url(#arrowhead)" style="fill: none;"></line></g><g><rect x="1870" y="959" fill="#f4f4f4" stroke="#666" width="10" height="68" rx="0" ry="0"></rect></g><g><text x="1977.5" y="985" class="messageText" style="text-anchor: middle;">Sign Source Package</text><line x1="1880" y1="992" x2="2075" y2="992" class="messageLine0" stroke-width="2" stroke="black" marker-end="url(#arrowhead)" style="fill: none;"></line></g><g><rect x="2070" y="994" fill="#f4f4f4" stroke="#666" width="10" height="33" rx="0" ry="0"></rect></g><g><text x="1672.5" y="1020" class="messageText" style="text-anchor: middle;">Signed Source Package</text><line x1="2070" y1="1027" x2="1275" y2="1027" class="messageLine1" stroke-width="2" stroke="black" marker-end="url(#arrowhead)" style="stroke-dasharray: 3, 3; fill: none;"></line></g><g><text x="1375" y="1055" class="messageText" style="text-anchor: middle;">Make L10N Repacks</text><line x1="1275" y1="1062" x2="1475" y2="1062" class="messageLine0" stroke-width="2" stroke="black" marker-end="url(#arrowhead)" style="fill: none;"></line></g><g><rect x="1470" y="1064" fill="#f4f4f4" stroke="#666" width="10" height="33" rx="0" ry="0"></rect></g><g><text x="1372.5" y="1090" class="messageText" style="text-anchor: middle;">L10N Repacks</text><line x1="1470" y1="1097" x2="1275" y2="1097" class="messageLine1" stroke-width="2" stroke="black" marker-end="url(#arrowhead)" style="stroke-dasharray: 3, 3; fill: none;"></line></g><g><text x="1575" y="1125" class="messageText" style="text-anchor: middle;">Sign L10N Internals</text><line x1="1275" y1="1132" x2="1875" y2="1132" class="messageLine0" stroke-width="2" stroke="black" marker-end="url(#arrowhead)" style="fill: none;"></line></g><g><rect x="1870" y="1134" fill="#f4f4f4" stroke="#666" width="10" height="68" rx="0" ry="0"></rect></g><g><text x="1977.5" y="1160" class="messageText" style="text-anchor: middle;">Sign L10N Internals</text><line x1="1880" y1="1167" x2="2075" y2="1167" class="messageLine0" stroke-width="2" stroke="black" marker-end="url(#arrowhead)" style="fill: none;"></line></g><g><rect x="2070" y="1169" fill="#f4f4f4" stroke="#666" width="10" height="33" rx="0" ry="0"></rect></g><g><text x="1672.5" y="1195" class="messageText" style="text-anchor: middle;">Signed L10N Internals</text><line x1="2070" y1="1202" x2="1275" y2="1202" class="messageLine1" stroke-width="2" stroke="black" marker-end="url(#arrowhead)" style="stroke-dasharray: 3, 3; fill: none;"></line></g><g><text x="1375" y="1230" class="messageText" style="text-anchor: middle;">Package L10N Builds</text><line x1="1275" y1="1237" x2="1475" y2="1237" class="messageLine0" stroke-width="2" stroke="black" marker-end="url(#arrowhead)" style="fill: none;"></line></g><g><rect x="1470" y="1239" fill="#f4f4f4" stroke="#666" width="10" height="33" rx="0" ry="0"></rect></g><g><text x="1372.5" y="1265" class="messageText" style="text-anchor: middle;">Packaged L10N Builds</text><line x1="1470" y1="1272" x2="1275" y2="1272" class="messageLine1" stroke-width="2" stroke="black" marker-end="url(#arrowhead)" style="stroke-dasharray: 3, 3; fill: none;"></line></g><g><text x="1575" y="1300" class="messageText" style="text-anchor: middle;">Sign L10n Packages</text><line x1="1275" y1="1307" x2="1875" y2="1307" class="messageLine0" stroke-width="2" stroke="black" marker-end="url(#arrowhead)" style="fill: none;"></line></g><g><rect x="1870" y="1309" fill="#f4f4f4" stroke="#666" width="10" height="68" rx="0" ry="0"></rect></g><g><text x="1977.5" y="1335" class="messageText" style="text-anchor: middle;">Sign L10n Packages</text><line x1="1880" y1="1342" x2="2075" y2="1342" class="messageLine0" stroke-width="2" stroke="black" marker-end="url(#arrowhead)" style="fill: none;"></line></g><g><rect x="2070" y="1344" fill="#f4f4f4" stroke="#666" width="10" height="33" rx="0" ry="0"></rect></g><g><text x="1672.5" y="1370" class="messageText" style="text-anchor: middle;">Signed L10N Packages</text><line x1="2070" y1="1377" x2="1275" y2="1377" class="messageLine1" stroke-width="2" stroke="black" marker-end="url(#arrowhead)" style="stroke-dasharray: 3, 3; fill: none;"></line></g><g><text x="1375" y="1405" class="messageText" style="text-anchor: middle;">Sign and Push Langpacks</text><line x1="1275" y1="1412" x2="1475" y2="1412" class="messageLine0" stroke-width="2" stroke="black" marker-end="url(#arrowhead)" style="fill: none;"></line></g><g><text x="2575" y="1440" class="messageText" style="text-anchor: middle;">Sign and Push Langpacks</text><line x1="1475" y1="1447" x2="3675" y2="1447" class="messageLine0" stroke-width="2" stroke="black" marker-end="url(#arrowhead)" style="fill: none;"></line></g><g><text x="1375" y="1475" class="messageText" style="text-anchor: middle;">Make Partner Repacks</text><line x1="1275" y1="1482" x2="1475" y2="1482" class="messageLine0" stroke-width="2" stroke="black" marker-end="url(#arrowhead)" style="fill: none;"></line></g><g><rect x="1470" y="1484" fill="#f4f4f4" stroke="#666" width="10" height="33" rx="0" ry="0"></rect></g><g><text x="1372.5" y="1510" class="messageText" style="text-anchor: middle;">Partner Repacks</text><line x1="1470" y1="1517" x2="1275" y2="1517" class="messageLine1" stroke-width="2" stroke="black" marker-end="url(#arrowhead)" style="stroke-dasharray: 3, 3; fill: none;"></line></g><g><text x="1575" y="1545" class="messageText" style="text-anchor: middle;">Sign Partner Internals</text><line x1="1275" y1="1552" x2="1875" y2="1552" class="messageLine0" stroke-width="2" stroke="black" marker-end="url(#arrowhead)" style="fill: none;"></line></g><g><rect x="1870" y="1554" fill="#f4f4f4" stroke="#666" width="10" height="68" rx="0" ry="0"></rect></g><g><text x="1977.5" y="1580" class="messageText" style="text-anchor: middle;">Sign Partner Internals</text><line x1="1880" y1="1587" x2="2075" y2="1587" class="messageLine0" stroke-width="2" stroke="black" marker-end="url(#arrowhead)" style="fill: none;"></line></g><g><rect x="2070" y="1589" fill="#f4f4f4" stroke="#666" width="10" height="33" rx="0" ry="0"></rect></g><g><text x="1672.5" y="1615" class="messageText" style="text-anchor: middle;">Signed Partner Internals</text><line x1="2070" y1="1622" x2="1275" y2="1622" class="messageLine1" stroke-width="2" stroke="black" marker-end="url(#arrowhead)" style="stroke-dasharray: 3, 3; fill: none;"></line></g><g><text x="1375" y="1650" class="messageText" style="text-anchor: middle;">Package Partner Builds</text><line x1="1275" y1="1657" x2="1475" y2="1657" class="messageLine0" stroke-width="2" stroke="black" marker-end="url(#arrowhead)" style="fill: none;"></line></g><g><rect x="1470" y="1659" fill="#f4f4f4" stroke="#666" width="10" height="33" rx="0" ry="0"></rect></g><g><text x="1372.5" y="1685" class="messageText" style="text-anchor: middle;">Packaged Partner Builds</text><line x1="1470" y1="1692" x2="1275" y2="1692" class="messageLine1" stroke-width="2" stroke="black" marker-end="url(#arrowhead)" style="stroke-dasharray: 3, 3; fill: none;"></line></g><g><text x="1575" y="1720" class="messageText" style="text-anchor: middle;">Sign Partner Packages</text><line x1="1275" y1="1727" x2="1875" y2="1727" class="messageLine0" stroke-width="2" stroke="black" marker-end="url(#arrowhead)" style="fill: none;"></line></g><g><rect x="1870" y="1729" fill="#f4f4f4" stroke="#666" width="10" height="68" rx="0" ry="0"></rect></g><g><text x="1977.5" y="1755" class="messageText" style="text-anchor: middle;">Sign Partner Packages</text><line x1="1880" y1="1762" x2="2075" y2="1762" class="messageLine0" stroke-width="2" stroke="black" marker-end="url(#arrowhead)" style="fill: none;"></line></g><g><rect x="2070" y="1764" fill="#f4f4f4" stroke="#666" width="10" height="33" rx="0" ry="0"></rect></g><g><text x="1672.5" y="1790" class="messageText" style="text-anchor: middle;">Signed Partner Packages</text><line x1="2070" y1="1797" x2="1275" y2="1797" class="messageLine1" stroke-width="2" stroke="black" marker-end="url(#arrowhead)" style="stroke-dasharray: 3, 3; fill: none;"></line></g><g><text x="1475" y="1825" class="messageText" style="text-anchor: middle;">Make Partial Updates</text><line x1="1275" y1="1832" x2="1675" y2="1832" class="messageLine0" stroke-width="2" stroke="black" marker-end="url(#arrowhead)" style="fill: none;"></line></g><g><rect x="1670" y="1834" fill="#f4f4f4" stroke="#666" width="10" height="33" rx="0" ry="0"></rect></g><g><text x="1472.5" y="1860" class="messageText" style="text-anchor: middle;">Partial Updates</text><line x1="1670" y1="1867" x2="1275" y2="1867" class="messageLine1" stroke-width="2" stroke="black" marker-end="url(#arrowhead)" style="stroke-dasharray: 3, 3; fill: none;"></line></g><g><text x="1575" y="1895" class="messageText" style="text-anchor: middle;">Sign Partial Updates</text><line x1="1275" y1="1902" x2="1875" y2="1902" class="messageLine0" stroke-width="2" stroke="black" marker-end="url(#arrowhead)" style="fill: none;"></line></g><g><rect x="1870" y="1904" fill="#f4f4f4" stroke="#666" width="10" height="68" rx="0" ry="0"></rect></g><g><text x="1977.5" y="1930" class="messageText" style="text-anchor: middle;">Sign Partial Updates</text><line x1="1880" y1="1937" x2="2075" y2="1937" class="messageLine0" stroke-width="2" stroke="black" marker-end="url(#arrowhead)" style="fill: none;"></line></g><g><rect x="2070" y="1939" fill="#f4f4f4" stroke="#666" width="10" height="33" rx="0" ry="0"></rect></g><g><text x="1672.5" y="1965" class="messageText" style="text-anchor: middle;">Signed Partial Updates</text><line x1="2070" y1="1972" x2="1275" y2="1972" class="messageLine1" stroke-width="2" stroke="black" marker-end="url(#arrowhead)" style="stroke-dasharray: 3, 3; fill: none;"></line></g><g><text x="1775" y="2000" class="messageText" style="text-anchor: middle;">Copy Bits to Candidates Dir</text><line x1="1275" y1="2007" x2="2275" y2="2007" class="messageLine0" stroke-width="2" stroke="black" marker-end="url(#arrowhead)" style="fill: none;"></line></g><g><rect x="2270" y="2009" fill="#f4f4f4" stroke="#666" width="10" height="33" rx="0" ry="0"></rect></g><g><text x="2677.5" y="2035" class="messageText" style="text-anchor: middle;">Copy Bits to Candidates Dir</text><line x1="2280" y1="2042" x2="3075" y2="2042" class="messageLine0" stroke-width="2" stroke="black" marker-end="url(#arrowhead)" style="fill: none;"></line></g><g><rect x="3070" y="2036" fill="#f4f4f4" stroke="#666" width="10" height="18" rx="0" ry="0"></rect></g><g><text x="1575" y="2070" class="messageText" style="text-anchor: middle;">Sign Checksums</text><line x1="1275" y1="2077" x2="1875" y2="2077" class="messageLine0" stroke-width="2" stroke="black" marker-end="url(#arrowhead)" style="fill: none;"></line></g><g><rect x="1870" y="2079" fill="#f4f4f4" stroke="#666" width="10" height="68" rx="0" ry="0"></rect></g><g><text x="1977.5" y="2105" class="messageText" style="text-anchor: middle;">Sign Checksums</text><line x1="1880" y1="2112" x2="2075" y2="2112" class="messageLine0" stroke-width="2" stroke="black" marker-end="url(#arrowhead)" style="fill: none;"></line></g><g><rect x="2070" y="2114" fill="#f4f4f4" stroke="#666" width="10" height="33" rx="0" ry="0"></rect></g><g><text x="1672.5" y="2140" class="messageText" style="text-anchor: middle;">Signed Checksums</text><line x1="2070" y1="2147" x2="1275" y2="2147" class="messageLine1" stroke-width="2" stroke="black" marker-end="url(#arrowhead)" style="stroke-dasharray: 3, 3; fill: none;"></line></g><g><text x="1775" y="2175" class="messageText" style="text-anchor: middle;">Copy Checksums to Candidates Dir</text><line x1="1275" y1="2182" x2="2275" y2="2182" class="messageLine0" stroke-width="2" stroke="black" marker-end="url(#arrowhead)" style="fill: none;"></line></g><g><rect x="2270" y="2184" fill="#f4f4f4" stroke="#666" width="10" height="33" rx="0" ry="0"></rect></g><g><text x="2677.5" y="2210" class="messageText" style="text-anchor: middle;">Copy Checksums to Candidates Dir</text><line x1="2280" y1="2217" x2="3075" y2="2217" class="messageLine0" stroke-width="2" stroke="black" marker-end="url(#arrowhead)" style="fill: none;"></line></g><g><rect x="3070" y="2211" fill="#f4f4f4" stroke="#666" width="10" height="18" rx="0" ry="0"></rect></g><g><text x="1975" y="2245" class="messageText" style="text-anchor: middle;">Submit to Bouncer</text><line x1="1275" y1="2252" x2="2675" y2="2252" class="messageLine0" stroke-width="2" stroke="black" marker-end="url(#arrowhead)" style="fill: none;"></line></g><g><rect x="2670" y="2254" fill="#f4f4f4" stroke="#666" width="10" height="33" rx="0" ry="0"></rect></g><g><text x="3077.5" y="2280" class="messageText" style="text-anchor: middle;">Submit to Bouncer</text><line x1="2680" y1="2287" x2="3475" y2="2287" class="messageLine0" stroke-width="2" stroke="black" marker-end="url(#arrowhead)" style="fill: none;"></line></g><g><rect x="3470" y="2281" fill="#f4f4f4" stroke="#666" width="10" height="18" rx="0" ry="0"></rect></g><g><text x="775" y="2315" class="messageText" style="text-anchor: middle;">Notify that builds are ready for testing</text><line x1="1275" y1="2322" x2="275" y2="2322" class="messageLine0" stroke-width="2" stroke="black" marker-end="url(#arrowhead)" style="fill: none;"></line></g><g><text x="1875" y="2350" class="messageText" style="text-anchor: middle;">Submit to Balrog</text><line x1="1275" y1="2357" x2="2475" y2="2357" class="messageLine0" stroke-width="2" stroke="black" marker-end="url(#arrowhead)" style="fill: none;"></line></g><g><rect x="2470" y="2359" fill="#f4f4f4" stroke="#666" width="10" height="33" rx="0" ry="0"></rect></g><g><text x="2877.5" y="2385" class="messageText" style="text-anchor: middle;">Submit to Balrog</text><line x1="2480" y1="2392" x2="3275" y2="2392" class="messageLine0" stroke-width="2" stroke="black" marker-end="url(#arrowhead)" style="fill: none;"></line></g><g><rect x="3270" y="2386" fill="#f4f4f4" stroke="#666" width="10" height="18" rx="0" ry="0"></rect></g><g><text x="1375" y="2420" class="messageText" style="text-anchor: middle;">Generate Update Verify Configs</text><line x1="1275" y1="2427" x2="1475" y2="2427" class="messageLine0" stroke-width="2" stroke="black" marker-end="url(#arrowhead)" style="fill: none;"></line></g><g><rect x="1470" y="2429" fill="#f4f4f4" stroke="#666" width="10" height="33" rx="0" ry="0"></rect></g><g><text x="1372.5" y="2455" class="messageText" style="text-anchor: middle;">Update Verify Configs</text><line x1="1470" y1="2462" x2="1275" y2="2462" class="messageLine1" stroke-width="2" stroke="black" marker-end="url(#arrowhead)" style="stroke-dasharray: 3, 3; fill: none;"></line></g><g><text x="1375" y="2490" class="messageText" style="text-anchor: middle;">Verify Updates</text><line x1="1275" y1="2497" x2="1475" y2="2497" class="messageLine0" stroke-width="2" stroke="black" marker-end="url(#arrowhead)" style="fill: none;"></line></g><g><rect x="1300" y="2507" fill="#EDF2AE" stroke="#666" width="150" height="34" rx="0" ry="0" class="note"></rect><text x="1296" y="2531" fill="black" class="noteText"><tspan x="1316" fill="black">End Promote Phase</tspan></text></g><g><text x="275" y="2569" class="messageText" style="text-anchor: middle;">Push Release to CDNs</text><line x1="475" y1="2576" x2="75" y2="2576" class="messageLine0" stroke-width="2" stroke="black" marker-end="url(#arrowhead)" style="fill: none;"></line></g><g><text x="375" y="2604" class="messageText" style="text-anchor: middle;">Create Decision Task</text><line x1="75" y1="2611" x2="675" y2="2611" class="messageLine0" stroke-width="2" stroke="black" marker-end="url(#arrowhead)" style="fill: none;"></line></g><g><text x="975" y="2639" class="messageText" style="text-anchor: middle;">Create Decision Task</text><line x1="675" y1="2646" x2="1275" y2="2646" class="messageLine0" stroke-width="2" stroke="black" marker-end="url(#arrowhead)" style="fill: none;"></line></g><g><text x="1275" y="2674" class="messageText" style="text-anchor: middle;">Create Push Graph</text><path d="M 1275,2681 C 1335,2671 1335,2711 1275,2701" class="messageLine0" stroke-width="2" stroke="black" marker-end="url(#arrowhead)" style="fill: none;"></path></g><g><rect x="1300" y="2721" fill="#EDF2AE" stroke="#666" width="150" height="34" rx="0" ry="0" class="note"></rect><text x="1296" y="2745" fill="black" class="noteText"><tspan x="1316" fill="black">Start Push Phase</tspan></text></g><g><text x="1775" y="2783" class="messageText" style="text-anchor: middle;">Copy Bits to Releases Dir</text><line x1="1275" y1="2790" x2="2275" y2="2790" class="messageLine0" stroke-width="2" stroke="black" marker-end="url(#arrowhead)" style="fill: none;"></line></g><g><text x="3075" y="2818" class="messageText" style="text-anchor: middle;">Copy Bits to Releases Dir</text><line x1="2275" y1="2825" x2="3875" y2="2825" class="messageLine0" stroke-width="2" stroke="black" marker-end="url(#arrowhead)" style="fill: none;"></line></g><g><text x="775" y="2853" class="messageText" style="text-anchor: middle;">Notify that pushed builds are ready for testing</text><line x1="1275" y1="2860" x2="275" y2="2860" class="messageLine0" stroke-width="2" stroke="black" marker-end="url(#arrowhead)" style="fill: none;"></line></g><g><text x="1375" y="2888" class="messageText" style="text-anchor: middle;">Verify Bouncer &amp; Balrog Entries</text><line x1="1275" y1="2895" x2="1475" y2="2895" class="messageLine0" stroke-width="2" stroke="black" marker-end="url(#arrowhead)" style="fill: none;"></line></g><g><rect x="1300" y="2905" fill="#EDF2AE" stroke="#666" width="150" height="34" rx="0" ry="0" class="note"></rect><text x="1296" y="2929" fill="black" class="noteText"><tspan x="1316" fill="black">End Push Phase</tspan></text></g><g><text x="275" y="2967" class="messageText" style="text-anchor: middle;">Publish Release</text><line x1="475" y1="2974" x2="75" y2="2974" class="messageLine0" stroke-width="2" stroke="black" marker-end="url(#arrowhead)" style="fill: none;"></line></g><g><text x="375" y="3002" class="messageText" style="text-anchor: middle;">Create Decision Task</text><line x1="75" y1="3009" x2="675" y2="3009" class="messageLine0" stroke-width="2" stroke="black" marker-end="url(#arrowhead)" style="fill: none;"></line></g><g><text x="975" y="3037" class="messageText" style="text-anchor: middle;">Create Decision Task</text><line x1="675" y1="3044" x2="1275" y2="3044" class="messageLine0" stroke-width="2" stroke="black" marker-end="url(#arrowhead)" style="fill: none;"></line></g><g><text x="1275" y="3072" class="messageText" style="text-anchor: middle;">Create Ship Graph</text><path d="M 1275,3079 C 1335,3069 1335,3109 1275,3099" class="messageLine0" stroke-width="2" stroke="black" marker-end="url(#arrowhead)" style="fill: none;"></path></g><g><rect x="1300" y="3119" fill="#EDF2AE" stroke="#666" width="150" height="34" rx="0" ry="0" class="note"></rect><text x="1296" y="3143" fill="black" class="noteText"><tspan x="1316" fill="black">Start Ship Phase</tspan></text></g><g><text x="1875" y="3181" class="messageText" style="text-anchor: middle;">Schedule Ship in Balrog</text><line x1="1275" y1="3188" x2="2475" y2="3188" class="messageLine0" stroke-width="2" stroke="black" marker-end="url(#arrowhead)" style="fill: none;"></line></g><g><text x="2875" y="3216" class="messageText" style="text-anchor: middle;">Schedule Ship in Balrog</text><line x1="2475" y1="3223" x2="3275" y2="3223" class="messageLine0" stroke-width="2" stroke="black" marker-end="url(#arrowhead)" style="fill: none;"></line></g><g><text x="1975" y="3251" class="messageText" style="text-anchor: middle;">Update Bouncer Alias'</text><line x1="1275" y1="3258" x2="2675" y2="3258" class="messageLine0" stroke-width="2" stroke="black" marker-end="url(#arrowhead)" style="fill: none;"></line></g><g><text x="3075" y="3286" class="messageText" style="text-anchor: middle;">Update Bouncer Alias'</text><line x1="2675" y1="3293" x2="3475" y2="3293" class="messageLine0" stroke-width="2" stroke="black" marker-end="url(#arrowhead)" style="fill: none;"></line></g><g><text x="2075" y="3321" class="messageText" style="text-anchor: middle;">Mark as Shipped</text><line x1="1275" y1="3328" x2="2875" y2="3328" class="messageLine0" stroke-width="2" stroke="black" marker-end="url(#arrowhead)" style="fill: none;"></line></g><g><text x="1875" y="3356" class="messageText" style="text-anchor: middle;">Mark as Shipped</text><line x1="2875" y1="3363" x2="875" y2="3363" class="messageLine0" stroke-width="2" stroke="black" marker-end="url(#arrowhead)" style="fill: none;"></line></g><g><text x="875" y="3391" class="messageText" style="text-anchor: middle;">Notify that updates are awaiting Signoff in Balrog</text><line x1="1275" y1="3398" x2="475" y2="3398" class="messageLine0" stroke-width="2" stroke="black" marker-end="url(#arrowhead)" style="fill: none;"></line></g><g><text x="1675" y="3426" class="messageText" style="text-anchor: middle;">Sign off on updates</text><line x1="75" y1="3433" x2="3275" y2="3433" class="messageLine0" stroke-width="2" stroke="black" marker-end="url(#arrowhead)" style="fill: none;"></line></g><g><text x="1875" y="3461" class="messageText" style="text-anchor: middle;">Sign off on updates</text><line x1="475" y1="3468" x2="3275" y2="3468" class="messageLine0" stroke-width="2" stroke="black" marker-end="url(#arrowhead)" style="fill: none;"></line></g><g><text x="1375" y="3496" class="messageText" style="text-anchor: middle;">Bump in-tree version</text><line x1="1275" y1="3503" x2="1475" y2="3503" class="messageLine0" stroke-width="2" stroke="black" marker-end="url(#arrowhead)" style="fill: none;"></line></g><g><text x="1275" y="3531" class="messageText" style="text-anchor: middle;">Bump in-tree version</text><line x1="1475" y1="3538" x2="1075" y2="3538" class="messageLine0" stroke-width="2" stroke="black" marker-end="url(#arrowhead)" style="fill: none;"></line></g><g><rect x="1300" y="3548" fill="#EDF2AE" stroke="#666" width="150" height="34" rx="0" ry="0" class="note"></rect><text x="1296" y="3572" fill="black" class="noteText"><tspan x="1316" fill="black">End Ship Phase</tspan></text></g><g><rect x="0" y="3602" fill="#eaeaea" stroke="#666" width="150" height="65" rx="3" ry="3" class="actor"></rect><text x="75" y="3634.5" dominant-baseline="central" alignment-baseline="central" class="actor" style="text-anchor: middle;"><tspan x="75" dy="0">Release Engineer</tspan></text></g><g><rect x="200" y="3602" fill="#eaeaea" stroke="#666" width="150" height="65" rx="3" ry="3" class="actor"></rect><text x="275" y="3634.5" dominant-baseline="central" alignment-baseline="central" class="actor" style="text-anchor: middle;"><tspan x="275" dy="0">QA Engineer</tspan></text></g><g><rect x="400" y="3602" fill="#eaeaea" stroke="#666" width="150" height="65" rx="3" ry="3" class="actor"></rect><text x="475" y="3634.5" dominant-baseline="central" alignment-baseline="central" class="actor" style="text-anchor: middle;"><tspan x="475" dy="0">Release Manager</tspan></text></g><g><rect x="600" y="3602" fill="#eaeaea" stroke="#666" width="150" height="65" rx="3" ry="3" class="actor"></rect><text x="675" y="3634.5" dominant-baseline="central" alignment-baseline="central" class="actor" style="text-anchor: middle;"><tspan x="675" dy="0">buildbot-master81</tspan></text></g><g><rect x="800" y="3602" fill="#eaeaea" stroke="#666" width="150" height="65" rx="3" ry="3" class="actor"></rect><text x="875" y="3634.5" dominant-baseline="central" alignment-baseline="central" class="actor" style="text-anchor: middle;"><tspan x="875" dy="0">Ship It</tspan></text></g><g><rect x="1000" y="3602" fill="#eaeaea" stroke="#666" width="150" height="65" rx="3" ry="3" class="actor"></rect><text x="1075" y="3634.5" dominant-baseline="central" alignment-baseline="central" class="actor" style="text-anchor: middle;"><tspan x="1075" dy="0">hg.mozilla.org</tspan></text></g><g><rect x="1200" y="3602" fill="#eaeaea" stroke="#666" width="150" height="65" rx="3" ry="3" class="actor"></rect><text x="1275" y="3634.5" dominant-baseline="central" alignment-baseline="central" class="actor" style="text-anchor: middle;"><tspan x="1275" dy="0">Taskcluster</tspan></text></g><g><rect x="1400" y="3602" fill="#eaeaea" stroke="#666" width="150" height="65" rx="3" ry="3" class="actor"></rect><text x="1475" y="3634.5" dominant-baseline="central" alignment-baseline="central" class="actor" style="text-anchor: middle;"><tspan x="1475" dy="0">Release Workers</tspan></text></g><g><rect x="1600" y="3602" fill="#eaeaea" stroke="#666" width="150" height="65" rx="3" ry="3" class="actor"></rect><text x="1675" y="3634.5" dominant-baseline="central" alignment-baseline="central" class="actor" style="text-anchor: middle;"><tspan x="1675" dy="0">Funsize</tspan></text></g><g><rect x="1800" y="3602" fill="#eaeaea" stroke="#666" width="150" height="65" rx="3" ry="3" class="actor"></rect><text x="1875" y="3634.5" dominant-baseline="central" alignment-baseline="central" class="actor" style="text-anchor: middle;"><tspan x="1875" dy="0">Signing Workers</tspan></text></g><g><rect x="2000" y="3602" fill="#eaeaea" stroke="#666" width="150" height="65" rx="3" ry="3" class="actor"></rect><text x="2075" y="3634.5" dominant-baseline="central" alignment-baseline="central" class="actor" style="text-anchor: middle;"><tspan x="2075" dy="0">Signing Servers</tspan></text></g><g><rect x="2200" y="3602" fill="#eaeaea" stroke="#666" width="150" height="65" rx="3" ry="3" class="actor"></rect><text x="2275" y="3634.5" dominant-baseline="central" alignment-baseline="central" class="actor" style="text-anchor: middle;"><tspan x="2275" dy="0">Beetmover Workers</tspan></text></g><g><rect x="2400" y="3602" fill="#eaeaea" stroke="#666" width="150" height="65" rx="3" ry="3" class="actor"></rect><text x="2475" y="3634.5" dominant-baseline="central" alignment-baseline="central" class="actor" style="text-anchor: middle;"><tspan x="2475" dy="0">Balrog Workers</tspan></text></g><g><rect x="2600" y="3602" fill="#eaeaea" stroke="#666" width="150" height="65" rx="3" ry="3" class="actor"></rect><text x="2675" y="3634.5" dominant-baseline="central" alignment-baseline="central" class="actor" style="text-anchor: middle;"><tspan x="2675" dy="0">Bouncer Workers</tspan></text></g><g><rect x="2800" y="3602" fill="#eaeaea" stroke="#666" width="150" height="65" rx="3" ry="3" class="actor"></rect><text x="2875" y="3634.5" dominant-baseline="central" alignment-baseline="central" class="actor" style="text-anchor: middle;"><tspan x="2875" dy="0">Shipit Worker</tspan></text></g><g><rect x="3000" y="3602" fill="#eaeaea" stroke="#666" width="150" height="65" rx="3" ry="3" class="actor"></rect><text x="3075" y="3634.5" dominant-baseline="central" alignment-baseline="central" class="actor" style="text-anchor: middle;"><tspan x="3075" dy="0">S3</tspan></text></g><g><rect x="3200" y="3602" fill="#eaeaea" stroke="#666" width="150" height="65" rx="3" ry="3" class="actor"></rect><text x="3275" y="3634.5" dominant-baseline="central" alignment-baseline="central" class="actor" style="text-anchor: middle;"><tspan x="3275" dy="0">Balrog</tspan></text></g><g><rect x="3400" y="3602" fill="#eaeaea" stroke="#666" width="150" height="65" rx="3" ry="3" class="actor"></rect><text x="3475" y="3634.5" dominant-baseline="central" alignment-baseline="central" class="actor" style="text-anchor: middle;"><tspan x="3475" dy="0">Bouncer</tspan></text></g><g><rect x="3600" y="3602" fill="#eaeaea" stroke="#666" width="150" height="65" rx="3" ry="3" class="actor"></rect><text x="3675" y="3634.5" dominant-baseline="central" alignment-baseline="central" class="actor" style="text-anchor: middle;"><tspan x="3675" dy="0">AMO</tspan></text></g><g><rect x="3800" y="3602" fill="#eaeaea" stroke="#666" width="150" height="65" rx="3" ry="3" class="actor"></rect><text x="3875" y="3634.5" dominant-baseline="central" alignment-baseline="central" class="actor" style="text-anchor: middle;"><tspan x="3875" dy="0">S3</tspan></text></g></svg>