<?xml version="1.0" encoding="UTF-8" standalone="no"?>
<!DOCTYPE svg PUBLIC "-//W3C//DTD SVG 1.1//EN"
 "http://www.w3.org/Graphics/SVG/1.1/DTD/svg11.dtd">
<!-- Generated by graphviz version 2.40.1 (20161225.0304)
 -->
<!-- Title: Release Infrastructure Pages: 1 -->
<svg width="544pt" height="1089pt"
 viewBox="0.00 0.00 543.81 1089.00" xmlns="http://www.w3.org/2000/svg" xmlns:xlink="http://www.w3.org/1999/xlink">
<g id="graph0" class="graph" transform="scale(1 1) rotate(0) translate(4 1085)">
<title>Release Infrastructure</title>
<polygon fill="#ffffff" stroke="transparent" points="-4,4 -4,-1085 539.8103,-1085 539.8103,4 -4,4"/>
<g id="clust1" class="cluster">
<title>cluster_puppet</title>
<polygon fill="none" stroke="#000000" points="130.6909,-98 130.6909,-767 527.8103,-767 527.8103,-98 130.6909,-98"/>
<text text-anchor="middle" x="329.2506" y="-751.8" font-family="Times,serif" font-size="14.00" fill="#000000">RelEng Puppet Managed</text>
</g>
<!-- tc -->
<g id="node1" class="node">
<title>tc</title>
<ellipse fill="none" stroke="#000000" cx="51.3454" cy="-394" rx="51.1914" ry="18"/>
<text text-anchor="middle" x="51.3454" y="-390.3" font-family="Times,serif" font-size="14.00" fill="#000000">Taskcluster</text>
</g>
<!-- bw -->
<g id="node5" class="node">
<title>bw</title>
<ellipse fill="none" stroke="#000000" cx="240.0819" cy="-70" rx="71.4873" ry="18"/>
<text text-anchor="middle" x="240.0819" y="-66.3" font-family="Times,serif" font-size="14.00" fill="#000000">Release Workers</text>
</g>
<!-- tc&#45;&gt;bw -->
<g id="edge3" class="edge">
<title>tc&#45;&gt;bw</title>
<path fill="none" stroke="#000000" d="M56.1894,-375.6853C73.4165,-310.5508 130.6909,-94 130.6909,-94 130.6909,-94 152.1477,-89.2924 176.0556,-84.0471"/>
<polygon fill="#000000" stroke="#000000" points="177.0097,-87.4211 186.0273,-81.8594 175.5096,-80.5838 177.0097,-87.4211"/>
</g>
<!-- bms -->
<g id="node6" class="node">
<title>bms</title>
<ellipse fill="none" stroke="#000000" cx="240.0819" cy="-664" rx="101.2821" ry="18"/>
<text text-anchor="middle" x="240.0819" y="-660.3" font-family="Times,serif" font-size="14.00" fill="#000000">Beetmover Scriptworkers</text>
</g>
<!-- tc&#45;&gt;bms -->
<g id="edge7" class="edge">
<title>tc&#45;&gt;bms</title>
<path fill="none" stroke="#000000" d="M57.3092,-412.2645C75.7619,-468.7769 130.6909,-637 130.6909,-637 130.6909,-637 149.0819,-641.5393 170.7823,-646.8954"/>
<polygon fill="#000000" stroke="#000000" points="170.0373,-650.3165 180.5847,-649.3148 171.7148,-643.5204 170.0373,-650.3165"/>
</g>
<!-- bouncesw -->
<g id="node7" class="node">
<title>bouncesw</title>
<ellipse fill="none" stroke="#000000" cx="240.0819" cy="-610" rx="92.0841" ry="18"/>
<text text-anchor="middle" x="240.0819" y="-606.3" font-family="Times,serif" font-size="14.00" fill="#000000">Bouncer Scriptworkers</text>
</g>
<!-- tc&#45;&gt;bouncesw -->
<g id="edge8" class="edge">
<title>tc&#45;&gt;bouncesw</title>
<path fill="none" stroke="#000000" d="M58.9534,-412.1221C78.8129,-459.4273 130.6909,-583 130.6909,-583 130.6909,-583 150.3408,-587.85 172.9843,-593.4389"/>
<polygon fill="#000000" stroke="#000000" points="172.276,-596.869 182.8234,-595.8674 173.9535,-590.073 172.276,-596.869"/>
</g>
<!-- bs -->
<g id="node8" class="node">
<title>bs</title>
<ellipse fill="none" stroke="#000000" cx="240.0819" cy="-556" rx="86.3847" ry="18"/>
<text text-anchor="middle" x="240.0819" y="-552.3" font-family="Times,serif" font-size="14.00" fill="#000000">Balrog Scriptworkers</text>
</g>
<!-- tc&#45;&gt;bs -->
<g id="edge6" class="edge">
<title>tc&#45;&gt;bs</title>
<path fill="none" stroke="#000000" d="M61.7185,-411.6489C83.226,-448.2422 130.6909,-529 130.6909,-529 130.6909,-529 151.1614,-534.0525 174.3918,-539.7863"/>
<polygon fill="#000000" stroke="#000000" points="173.5572,-543.1853 184.1046,-542.1836 175.2347,-536.3892 173.5572,-543.1853"/>
</g>
<!-- sw -->
<g id="node9" class="node">
<title>sw</title>
<ellipse fill="none" stroke="#000000" cx="240.0819" cy="-340" rx="89.8845" ry="18"/>
<text text-anchor="middle" x="240.0819" y="-336.3" font-family="Times,serif" font-size="14.00" fill="#000000">Signing Scriptworkers</text>
</g>
<!-- tc&#45;&gt;sw -->
<g id="edge4" class="edge">
<title>tc&#45;&gt;sw</title>
<path fill="none" stroke="#000000" d="M88.2307,-381.4485C108.9513,-374.3976 130.6909,-367 130.6909,-367 130.6909,-367 150.659,-362.0714 173.5327,-356.4257"/>
<polygon fill="#000000" stroke="#000000" points="174.5939,-359.7689 183.4639,-353.9745 172.9165,-352.9729 174.5939,-359.7689"/>
</g>
<!-- as -->
<g id="node11" class="node">
<title>as</title>
<ellipse fill="none" stroke="#000000" cx="240.0819" cy="-502" rx="86.3847" ry="18"/>
<text text-anchor="middle" x="240.0819" y="-498.3" font-family="Times,serif" font-size="14.00" fill="#000000">Addon Scriptworkers</text>
</g>
<!-- tc&#45;&gt;as -->
<g id="edge5" class="edge">
<title>tc&#45;&gt;as</title>
<path fill="none" stroke="#000000" d="M68.1726,-411.178C91.4637,-434.9548 130.6909,-475 130.6909,-475 130.6909,-475 151.1614,-480.0525 174.3918,-485.7863"/>
<polygon fill="#000000" stroke="#000000" points="173.5572,-489.1853 184.1046,-488.1836 175.2347,-482.3892 173.5572,-489.1853"/>
</g>
<!-- pas -->
<g id="node13" class="node">
<title>pas</title>
<ellipse fill="none" stroke="#000000" cx="240.0819" cy="-448" rx="92.0841" ry="18"/>
<text text-anchor="middle" x="240.0819" y="-444.3" font-family="Times,serif" font-size="14.00" fill="#000000">Pushapk Scriptworkers</text>
</g>
<!-- tc&#45;&gt;pas -->
<g id="edge9" class="edge">
<title>tc&#45;&gt;pas</title>
<path fill="none" stroke="#000000" d="M88.2307,-406.5515C108.9513,-413.6024 130.6909,-421 130.6909,-421 130.6909,-421 150.3408,-425.85 172.9843,-431.4389"/>
<polygon fill="#000000" stroke="#000000" points="172.276,-434.869 182.8234,-433.8674 173.9535,-428.073 172.276,-434.869"/>
</g>
<!-- pss -->
<g id="node14" class="node">
<title>pss</title>
<ellipse fill="none" stroke="#000000" cx="240.0819" cy="-394" rx="95.5831" ry="18"/>
<text text-anchor="middle" x="240.0819" y="-390.3" font-family="Times,serif" font-size="14.00" fill="#000000">Pushsnap Scriptworkers</text>
</g>
<!-- tc&#45;&gt;pss -->
<g id="edge10" class="edge">
<title>tc&#45;&gt;pss</title>
<path fill="none" stroke="#000000" d="M102.9185,-394C112.7789,-394 123.4302,-394 134.2862,-394"/>
<polygon fill="#000000" stroke="#000000" points="134.2968,-397.5001 144.2968,-394 134.2968,-390.5001 134.2968,-397.5001"/>
</g>
<!-- sis -->
<g id="node15" class="node">
<title>sis</title>
<ellipse fill="none" stroke="#000000" cx="240.0819" cy="-124" rx="86.3847" ry="18"/>
<text text-anchor="middle" x="240.0819" y="-120.3" font-family="Times,serif" font-size="14.00" fill="#000000">Ship It Scriptworkers</text>
</g>
<!-- tc&#45;&gt;sis -->
<g id="edge11" class="edge">
<title>tc&#45;&gt;sis</title>
<path fill="none" stroke="#000000" d="M57.3092,-375.7355C75.7619,-319.2231 130.6909,-151 130.6909,-151 130.6909,-151 151.1614,-145.9475 174.3918,-140.2137"/>
<polygon fill="#000000" stroke="#000000" points="175.2347,-143.6108 184.1046,-137.8164 173.5572,-136.8147 175.2347,-143.6108"/>
</g>
<!-- ts -->
<g id="node16" class="node">
<title>ts</title>
<ellipse fill="none" stroke="#000000" cx="240.0819" cy="-286" rx="78.7863" ry="18"/>
<text text-anchor="middle" x="240.0819" y="-282.3" font-family="Times,serif" font-size="14.00" fill="#000000">Tree Scriptworkers</text>
</g>
<!-- tc&#45;&gt;ts -->
<g id="edge12" class="edge">
<title>tc&#45;&gt;ts</title>
<path fill="none" stroke="#000000" d="M68.1726,-376.822C91.4637,-353.0452 130.6909,-313 130.6909,-313 130.6909,-313 152.3144,-307.6629 176.3337,-301.7344"/>
<polygon fill="#000000" stroke="#000000" points="177.4779,-305.0571 186.3478,-299.2627 175.8004,-298.2611 177.4779,-305.0571"/>
</g>
<!-- hg -->
<g id="node2" class="node">
<title>hg</title>
<ellipse fill="none" stroke="#000000" cx="452.8662" cy="-72" rx="63.0888" ry="18"/>
<text text-anchor="middle" x="452.8662" y="-68.3" font-family="Times,serif" font-size="14.00" fill="#000000">hg.mozilla.org</text>
</g>
<!-- hg&#45;&gt;tc -->
<g id="edge2" class="edge">
<title>hg&#45;&gt;tc</title>
<path fill="none" stroke="#000000" d="M406.2708,-59.8694C375.7462,-51.9227 341.4729,-43 341.4729,-43 341.4729,-43 275.82,-30.6971 250.1743,-25.8913"/>
<polygon fill="#000000" stroke="#000000" points="250.5555,-22.4018 240.0819,-24 249.2661,-29.2821 250.5555,-22.4018"/>
</g>
<!-- shipit -->
<g id="node3" class="node">
<title>shipit</title>
<ellipse fill="none" stroke="#000000" cx="452.8662" cy="-18" rx="34.394" ry="18"/>
<text text-anchor="middle" x="452.8662" y="-14.3" font-family="Times,serif" font-size="14.00" fill="#000000">Ship It</text>
</g>
<!-- shipit&#45;&gt;tc -->
<g id="edge24" class="edge">
<title>shipit&#45;&gt;tc</title>
<path fill="none" stroke="#000000" d="M418.2052,-18.9774C368.7444,-20.372 280.5688,-22.8584 250.4777,-23.7069"/>
<polygon fill="#000000" stroke="#000000" points="249.9792,-20.2194 240.0819,-24 250.1766,-27.2167 249.9792,-20.2194"/>
<path fill="none" stroke="#000000" d="M240.0819,-24C240.0819,-24 130.6909,-43 130.6909,-43 130.6909,-43 71.8256,-303.402 55.4997,-375.6229"/>
</g>
<!-- gh -->
<g id="node4" class="node">
<title>gh</title>
<ellipse fill="none" stroke="#000000" cx="51.3454" cy="-718" rx="35.194" ry="18"/>
<text text-anchor="middle" x="51.3454" y="-714.3" font-family="Times,serif" font-size="14.00" fill="#000000">Github</text>
</g>
<!-- pm -->
<g id="node18" class="node">
<title>pm</title>
<ellipse fill="none" stroke="#000000" cx="240.0819" cy="-718" rx="65.7887" ry="18"/>
<text text-anchor="middle" x="240.0819" y="-714.3" font-family="Times,serif" font-size="14.00" fill="#000000">Puppet Masters</text>
</g>
<!-- gh&#45;&gt;pm -->
<g id="edge1" class="edge">
<title>gh&#45;&gt;pm</title>
<path fill="none" stroke="#000000" d="M86.8453,-718C108.623,-718 137.3649,-718 164.0674,-718"/>
<polygon fill="#000000" stroke="#000000" points="164.1829,-721.5001 174.1828,-718 164.1828,-714.5001 164.1829,-721.5001"/>
</g>
<!-- S3 -->
<g id="node22" class="node">
<title>S3</title>
<ellipse fill="none" stroke="#000000" cx="452.8662" cy="-1063" rx="27" ry="18"/>
<text text-anchor="middle" x="452.8662" y="-1059.3" font-family="Times,serif" font-size="14.00" fill="#000000">S3</text>
</g>
<!-- bms&#45;&gt;S3 -->
<g id="edge20" class="edge">
<title>bms&#45;&gt;S3</title>
<path fill="none" stroke="#000000" d="M296.4109,-679.0002C319.7481,-685.2148 341.4729,-691 341.4729,-691 341.4729,-691 377.4729,-1036 377.4729,-1036 377.4729,-1036 399.2228,-1043.7891 419.3585,-1051.0002"/>
<polygon fill="#000000" stroke="#000000" points="418.4167,-1054.3805 429.0113,-1054.457 420.7769,-1047.7904 418.4167,-1054.3805"/>
</g>
<!-- Bouncer -->
<g id="node21" class="node">
<title>Bouncer</title>
<ellipse fill="none" stroke="#000000" cx="452.8662" cy="-1009" rx="40.0939" ry="18"/>
<text text-anchor="middle" x="452.8662" y="-1005.3" font-family="Times,serif" font-size="14.00" fill="#000000">Bouncer</text>
</g>
<!-- bouncesw&#45;&gt;Bouncer -->
<g id="edge13" class="edge">
<title>bouncesw&#45;&gt;Bouncer</title>
<path fill="none" stroke="#000000" d="M294.6356,-624.5274C318.6342,-630.9181 341.4729,-637 341.4729,-637 341.4729,-637 377.4729,-982 377.4729,-982 377.4729,-982 393.9871,-987.9141 411.5576,-994.2065"/>
<polygon fill="#000000" stroke="#000000" points="410.7349,-997.6295 421.3295,-997.706 413.0951,-991.0393 410.7349,-997.6295"/>
</g>
<!-- Balrog -->
<g id="node20" class="node">
<title>Balrog</title>
<ellipse fill="none" stroke="#000000" cx="452.8662" cy="-955" rx="34.394" ry="18"/>
<text text-anchor="middle" x="452.8662" y="-951.3" font-family="Times,serif" font-size="14.00" fill="#000000">Balrog</text>
</g>
<!-- bs&#45;&gt;Balrog -->
<g id="edge14" class="edge">
<title>bs&#45;&gt;Balrog</title>
<path fill="none" stroke="#000000" d="M293.4497,-570.2116C317.8761,-576.7163 341.4729,-583 341.4729,-583 341.4729,-583 377.4729,-928 377.4729,-928 377.4729,-928 396.1639,-934.6937 414.9331,-941.4153"/>
<polygon fill="#000000" stroke="#000000" points="413.7687,-944.7159 424.3632,-944.7925 416.1288,-938.1258 413.7687,-944.7159"/>
</g>
<!-- ss -->
<g id="node10" class="node">
<title>ss</title>
<ellipse fill="none" stroke="#000000" cx="452.8662" cy="-340" rx="66.8882" ry="18"/>
<text text-anchor="middle" x="452.8662" y="-336.3" font-family="Times,serif" font-size="14.00" fill="#000000">Signing Servers</text>
</g>
<!-- sw&#45;&gt;ss -->
<g id="edge19" class="edge">
<title>sw&#45;&gt;ss</title>
<path fill="none" stroke="#000000" d="M330.0132,-340C345.2192,-340 360.885,-340 375.7273,-340"/>
<polygon fill="#000000" stroke="#000000" points="375.8554,-343.5001 385.8554,-340 375.8553,-336.5001 375.8554,-343.5001"/>
</g>
<!-- AMO -->
<g id="node19" class="node">
<title>AMO</title>
<ellipse fill="none" stroke="#000000" cx="452.8662" cy="-901" rx="31.6951" ry="18"/>
<text text-anchor="middle" x="452.8662" y="-897.3" font-family="Times,serif" font-size="14.00" fill="#000000">AMO</text>
</g>
<!-- as&#45;&gt;AMO -->
<g id="edge15" class="edge">
<title>as&#45;&gt;AMO</title>
<path fill="none" stroke="#000000" d="M293.4497,-516.2116C317.8761,-522.7163 341.4729,-529 341.4729,-529 341.4729,-529 377.4729,-874 377.4729,-874 377.4729,-874 396.9242,-880.9659 416.0668,-887.8213"/>
<polygon fill="#000000" stroke="#000000" points="415.0529,-891.1759 425.6475,-891.2524 417.413,-884.5857 415.0529,-891.1759"/>
</g>
<!-- l10n -->
<g id="node12" class="node">
<title>l10n</title>
<ellipse fill="none" stroke="#000000" cx="240.0819" cy="-232" rx="60.3893" ry="18"/>
<text text-anchor="middle" x="240.0819" y="-228.3" font-family="Times,serif" font-size="14.00" fill="#000000">L10n Bumper</text>
</g>
<!-- l10n&#45;&gt;hg -->
<g id="edge18" class="edge">
<title>l10n&#45;&gt;hg</title>
<path fill="none" stroke="#000000" d="M285.1439,-220.0002C312.223,-212.7891 341.4729,-205 341.4729,-205 341.4729,-205 377.4729,-94 377.4729,-94 377.4729,-94 386.8009,-91.2781 398.8948,-87.749"/>
<polygon fill="#000000" stroke="#000000" points="399.9543,-91.0859 408.5735,-84.9247 397.9934,-84.3661 399.9543,-91.0859"/>
</g>
<!-- gp -->
<g id="node23" class="node">
<title>gp</title>
<ellipse fill="none" stroke="#000000" cx="452.8662" cy="-847" rx="75.2868" ry="18"/>
<text text-anchor="middle" x="452.8662" y="-843.3" font-family="Times,serif" font-size="14.00" fill="#000000">Google Play Store</text>
</g>
<!-- pas&#45;&gt;gp -->
<g id="edge22" class="edge">
<title>pas&#45;&gt;gp</title>
<path fill="none" stroke="#000000" d="M294.6356,-462.5274C318.6342,-468.9181 341.4729,-475 341.4729,-475 341.4729,-475 377.4729,-820 377.4729,-820 377.4729,-820 388.0475,-823.787 401.2761,-828.5244"/>
<polygon fill="#000000" stroke="#000000" points="400.1664,-831.8447 410.761,-831.9212 402.5265,-825.2545 400.1664,-831.8447"/>
</g>
<!-- snap -->
<g id="node24" class="node">
<title>snap</title>
<ellipse fill="none" stroke="#000000" cx="452.8662" cy="-793" rx="49.2915" ry="18"/>
<text text-anchor="middle" x="452.8662" y="-789.3" font-family="Times,serif" font-size="14.00" fill="#000000">Snap Store</text>
</g>
<!-- pss&#45;&gt;snap -->
<g id="edge23" class="edge">
<title>pss&#45;&gt;snap</title>
<path fill="none" stroke="#000000" d="M295.5239,-408.764C319.1946,-415.0674 341.4729,-421 341.4729,-421 341.4729,-421 377.4729,-771 377.4729,-771 377.4729,-771 389.7629,-774.5863 404.4188,-778.8629"/>
<polygon fill="#000000" stroke="#000000" points="403.706,-782.3008 414.2861,-781.7422 405.6669,-775.5811 403.706,-782.3008"/>
</g>
<!-- sis&#45;&gt;shipit -->
<g id="edge16" class="edge">
<title>sis&#45;&gt;shipit</title>
<path fill="none" stroke="#000000" d="M293.4497,-109.7884C317.8761,-103.2837 341.4729,-97 341.4729,-97 341.4729,-97 377.4729,-45 377.4729,-45 377.4729,-45 396.1639,-38.3063 414.9331,-31.5847"/>
<polygon fill="#000000" stroke="#000000" points="416.1288,-34.8742 424.3632,-28.2075 413.7687,-28.2841 416.1288,-34.8742"/>
</g>
<!-- ts&#45;&gt;hg -->
<g id="edge21" class="edge">
<title>ts&#45;&gt;hg</title>
<path fill="none" stroke="#000000" d="M291.3715,-272.3418C316.5197,-265.6449 341.4729,-259 341.4729,-259 341.4729,-259 377.4729,-94 377.4729,-94 377.4729,-94 386.8009,-91.2781 398.8948,-87.749"/>
<polygon fill="#000000" stroke="#000000" points="399.9543,-91.0859 408.5735,-84.9247 397.9934,-84.3661 399.9543,-91.0859"/>
</g>
<!-- md -->
<g id="node17" class="node">
<title>md</title>
<ellipse fill="none" stroke="#000000" cx="240.0819" cy="-178" rx="83.3857" ry="18"/>
<text text-anchor="middle" x="240.0819" y="-174.3" font-family="Times,serif" font-size="14.00" fill="#000000">Merge Day Instance</text>
</g>
<!-- md&#45;&gt;hg -->
<g id="edge17" class="edge">
<title>md&#45;&gt;hg</title>
<path fill="none" stroke="#000000" d="M292.5593,-164.0255C317.2994,-157.4373 341.4729,-151 341.4729,-151 341.4729,-151 377.4729,-94 377.4729,-94 377.4729,-94 386.8009,-91.2781 398.8948,-87.749"/>
<polygon fill="#000000" stroke="#000000" points="399.9543,-91.0859 408.5735,-84.9247 397.9934,-84.3661 399.9543,-91.0859"/>
</g>
</g>
</svg>
